<?xml version="1.0" standalone="no"?>
<!DOCTYPE svg PUBLIC "-//W3C//DTD SVG 20010904//EN"
 "http://www.w3.org/TR/2001/REC-SVG-20010904/DTD/svg10.dtd">
<svg version="1.0" xmlns="http://www.w3.org/2000/svg"
 width="260.000000pt" height="260.000000pt" viewBox="0 0 260.000000 260.000000"
 preserveAspectRatio="xMidYMid meet">
<metadata>
Created by potrace 1.11, written by Peter Selinger 2001-2013
</metadata>
<g transform="translate(0.000000,260.000000) scale(0.100000,-0.100000)"
fill="#000000" stroke="none">
<path d="M0 1300 l0 -1300 1300 0 1300 0 0 1300 0 1300 -1300 0 -1300 0 0
-1300z m1445 672 l140 -347 377 -22 c208 -12 385 -23 395 -25 12 -2 -76 -86
-282 -266 -206 -181 -299 -269 -297 -280 2 -9 44 -181 93 -381 49 -200 88
-365 87 -366 -2 -1 -151 93 -333 210 l-329 212 -71 -45 c-420 -270 -595 -380
-595 -376 0 5 178 719 185 745 4 10 -89 98 -297 280 -205 179 -297 265 -285
267 10 2 187 13 395 25 l377 22 132 325 c73 179 137 338 143 354 5 16 13 26
18 22 4 -4 70 -164 147 -354z"/>
<path d="M1215 1853 c-42 -103 -90 -221 -107 -260 -16 -40 -35 -73 -41 -73 -7
0 -122 -7 -257 -15 -135 -8 -262 -15 -282 -15 -21 0 -38 -3 -37 -7 0 -5 100
-96 223 -203 l223 -195 -69 -274 c-38 -150 -67 -277 -66 -282 2 -4 113 62 247
147 239 152 245 156 270 141 14 -8 125 -79 246 -156 121 -77 221 -137 223
-132 1 5 -27 126 -63 269 -36 144 -65 268 -65 276 0 10 367 347 439 403 11 8
-25 12 -293 27 -205 11 -292 20 -298 29 -4 6 -51 120 -104 252 -54 132 -100
244 -104 248 -4 5 -42 -76 -85 -180z m154 -275 l66 -163 188 -11 c103 -6 189
-13 192 -16 3 -3 -59 -63 -140 -132 -80 -70 -145 -133 -145 -139 0 -7 20 -90
44 -184 24 -95 39 -170 32 -166 -6 4 -73 47 -150 96 -76 49 -145 91 -152 94
-11 4 -96 -46 -310 -184 -21 -13 -20 -4 22 159 24 95 44 178 44 185 0 6 -65
69 -145 139 -80 70 -143 129 -140 132 3 3 89 10 192 16 l188 11 69 168 c38 92
71 165 74 163 2 -3 34 -78 71 -168z"/>
</g>
</svg>
