<?xml version="1.0" standalone="no"?>

<!DOCTYPE svg PUBLIC "-//W3C//DTD SVG 20010904//EN"

 "http://www.w3.org/TR/2001/REC-SVG-20010904/DTD/svg10.dtd">

<svg version="1.0" xmlns="http://www.w3.org/2000/svg"

 width="260.000000pt" height="260.000000pt" viewBox="0 0 260.000000 260.000000"

 preserveAspectRatio="xMidYMid meet">

<path fill="#0196ff" stroke="none" d="
M0 130

L0 0

L130 0

L260 0

L260 130

L260 260

L130 260

L0 260

L0 130

Z

"/>

<path fill="#0398ff" stroke="none" d="
M2 257

L2 255

L1 255

L0 255

L0 128

L0 0

L130 0

L260 0

L260 126

L260 251

L259 251

L258 251

L258 255

L258 258

L130 258

L2 258

L2 257

Z

"/>

<path fill="#079aff" stroke="none" d="
M2 242

L2 241

L1 241

L0 241

L0 121

L0 0

L130 0

L260 0

L260 121

L260 241

L259 241

L258 241

L258 242

L258 244

L130 244

L2 244

L2 242

Z

"/>

<path fill="#0e9dff" stroke="none" d="
M62 231

C63 230 63 228 64 225

L64 221

L64 221

C63 221 62 222 60 222

C59 223 56 224 55 224

L53 224

L55 223

L57 222

L28 222

L0 222

L0 111

L0 0

L130 0

L260 0

L260 111

L260 223

L234 222

C219 222 206 222 203 223

C201 223 199 223 198 223

L197 222

L196 227

L196 232

L189 228

C175 219 170 216 168 216

L166 216

L166 217

L167 218

L165 218

C157 222 103 222 93 218

L91 218

L92 217

L92 216

L91 216

C89 216 82 220 69 229

L62 233

L62 231

Z

M22 223

C26 223 34 223 38 223

L46 224

L30 224

L14 224

L22 223

Z

M236 223

C238 223 242 223 244 223

L248 224

L240 224

L233 224

L236 223

Z

M250 223

C250 223 252 223 252 223

L254 224

L251 224

L249 224

L250 223

Z

M139 222

C140 222 142 222 143 222

L145 223

L141 223

L138 223

L139 222

Z

"/>

<path fill="#17a2ff" stroke="none" d="
M62 231

C64 225 68 208 68 206

L68 203

L67 204

L67 205

L61 203

C57 203 53 202 51 202

C49 202 47 202 47 202

C46 202 35 202 23 202

L1 202

L0 101

L0 0

L130 0

L260 0

L260 100

L260 201

L255 201

C252 202 239 202 227 202

C215 202 203 203 201 203

C199 204 195 204 194 204

L190 204

L190 205

C190 205 191 211 193 217

C195 224 196 230 196 231

L196 232

L173 217

C145 199 139 196 137 196

L135 196

L135 197

L135 198

L130 198

L124 198

L124 197

L124 196

L122 196

C120 196 119 196 119 197

C119 197 117 199 114 200

C109 203 65 230 63 232

L62 233

L62 231

Z

"/>

<path fill="#21a8ff" stroke="none" d="
M68 209

C71 197 74 185 74 182

L75 178

L71 178

L66 179

L67 178

L67 177

L57 177

L46 178

L47 177

L47 176

L28 176

L8 176

L9 177

L9 178

L8 178

L6 178

L7 177

L7 176

L4 176

C3 176 1 176 1 176

L0 176

L0 88

L0 0

L130 0

L260 0

L260 88

L260 177

L258 177

L256 178

L257 177

L257 176

L255 176

L252 176

L253 177

L253 178

L252 178

L250 178

L251 177

L251 176

L246 176

L240 176

L241 177

L241 178

L239 178

L237 178

L238 177

L238 176

L236 176

L234 176

L234 177

L235 178

L233 178

L230 178

L231 177

L231 176

L226 176

L220 176

L220 177

L220 178

L219 178

L218 178

L219 177

L219 176

L217 176

L215 176

L216 177

L216 178

L215 178

L213 178

L214 177

L214 176

L212 176

L210 176

L210 177

L211 178

L202 177

L193 177

L193 178

L194 179

L191 178

L188 178

L188 179

L189 180

L188 180

C188 180 187 180 187 179

C186 178 185 178 185 178

L184 178

L184 180

C184 180 187 192 190 206

C193 219 196 231 196 231

L196 232

L164 211

C144 199 131 191 130 191

C128 191 121 195 112 201

C74 225 68 229 65 230

L62 232

L68 209

Z

M98 196

C117 185 120 182 120 180

L120 179

L119 179

L118 180

L116 178

C114 175 112 176 105 180

C101 182 98 184 97 184

L96 184

L97 181

C98 179 98 178 98 177

L97 177

L96 178

C96 178 94 179 92 178

C90 178 88 179 88 179

C87 180 81 203 81 204

L81 206

L82 206

C83 206 90 202 98 196

Z

M178 204

C178 202 172 179 171 178

L170 177

L168 178

C167 179 165 179 164 178

L162 177

L162 180

L162 184

L162 184

C161 184 158 182 155 180

C147 175 145 175 142 179

L140 181

L144 185

C149 189 175 206 177 206

L178 206

L178 204

Z

"/>

<path fill="#2caeff" stroke="none" d="
M72 195

C77 175 81 158 81 157

C80 154 71 146 68 146

L67 146

L68 147

L68 148

L67 148

L66 148

L67 149

L68 150

L45 150

C25 151 5 151 1 151

L0 151

L0 76

L0 0

L130 0

L260 0

L260 76

L260 151

L253 151

C241 151 238 151 214 150

L191 150

L192 149

L194 148

L192 148

L191 148

L192 147

L192 146

L191 146

C189 146 179 154 178 155

C178 156 182 174 187 194

C192 214 196 231 196 231

L195 232

L163 211

C145 199 130 190 130 190

C129 190 122 194 114 199

C77 223 68 229 66 230

L63 232

L72 195

Z

M106 192

C119 184 129 177 130 177

C130 177 140 184 153 192

C165 199 176 206 177 206

L178 206

L178 204

C178 201 166 155 165 153

L163 151

L162 153

L160 154

L159 153

C158 153 157 152 157 152

L156 152

L156 156

C156 158 157 165 159 172

C161 178 162 184 162 184

L161 184

L147 175

C140 170 132 166 131 165

C128 165 126 166 110 176

C104 180 98 184 97 184

L96 184

L97 183

C98 181 104 156 104 153

L104 151

L103 151

L102 151

L101 153

L101 154

L99 154

L97 154

L97 153

L98 152

L96 152

L95 151

L94 154

C92 158 81 202 81 204

L81 206

L82 206

C83 206 94 199 106 192

Z

"/>

<path fill="#39b4ff" stroke="none" d="
M72 195

C77 175 81 158 81 156

C81 155 74 149 63 139

C40 119 41 120 36 121

L32 122

L33 123

L33 124

L29 123

L26 123

L26 124

L27 125

L13 125

L0 125

L0 62

L0 0

L130 0

L260 0

L260 63

L260 125

L258 125

C257 124 252 124 247 124

C242 124 235 124 232 123

C227 122 225 122 220 120

C219 120 216 122 210 127

C191 143 178 155 178 156

C178 157 182 174 187 194

C192 214 196 231 196 231

L196 232

L163 211

C145 199 130 190 130 190

C129 190 122 194 114 199

C77 224 68 229 66 230

L63 232

L72 195

Z

M178 204

C178 203 175 192 172 179

C169 165 166 154 166 153

C166 152 171 147 176 142

C182 137 187 132 187 131

L188 129

L187 128

C186 127 185 127 185 128

L184 128

L184 130

L185 131

L183 130

L182 130

L183 128

L184 127

L182 126

C180 126 178 126 176 128

C171 131 153 147 153 148

C153 148 155 155 157 164

C159 173 161 181 161 182

L161 184

L148 176

C127 162 131 163 119 170

C114 173 107 178 104 180

L98 184

L98 182

C98 181 100 173 102 164

C107 145 108 149 89 133

C81 126 80 125 74 127

L71 128

L71 129

C71 130 78 138 89 147

C94 152 94 152 87 177

C84 191 81 203 81 204

L81 206

L82 206

C83 206 94 199 106 192

C119 184 129 177 130 177

C130 177 141 184 154 192

C166 200 177 207 178 207

L179 206

L178 204

Z

"/>

<path fill="#44baff" stroke="none" d="
M72 195

C77 175 81 158 81 157

C81 155 72 146 51 129

C32 112 21 102 22 101

L22 99

L19 99

C17 99 16 99 15 100

L15 101

L17 100

L20 100

L18 101

C18 102 15 102 9 101

L0 101

L0 50

L0 0

L130 0

L260 0

L260 50

L260 101

L257 102

C254 102 242 102 240 101

L238 100

L238 101

C238 102 226 113 210 127

C195 140 182 151 180 153

C179 154 178 156 178 156

C178 157 182 174 187 194

C192 214 196 231 196 231

L196 232

L163 211

C145 199 130 190 130 190

C129 190 122 194 114 199

C77 224 68 229 66 230

L63 232

L72 195

Z

M106 191

C119 183 130 177 130 177

C131 178 142 184 154 192

C167 200 178 207 178 207

L179 207

L179 206

C178 205 175 193 172 179

C167 159 166 152 167 151

C167 150 176 142 187 132

C199 122 207 114 207 113

L207 112

L194 111

C186 110 174 110 166 109

C154 108 151 108 151 107

C150 106 149 104 148 103

L147 102

L145 104

L144 106

L141 105

L139 103

L139 105

C139 106 143 117 143 118

C144 118 167 120 177 120

L183 120

L182 122

C181 122 174 129 167 135

C159 142 153 148 153 148

C153 148 155 155 157 164

C159 173 161 180 161 182

L161 184

L148 176

C127 162 131 163 119 170

C114 173 107 178 104 180

L98 184

L98 182

C98 181 100 172 102 164

C107 145 109 149 86 130

C80 125 76 121 76 121

L76 120

L82 120

C91 120 115 118 115 118

C117 116 120 106 120 105

L120 103

L118 105

L115 106

L115 105

C115 105 116 104 116 104

L118 103

L115 103

L113 104

L113 103

L113 102

L112 102

L110 102

L110 105

C109 106 108 107 107 108

C105 108 93 109 79 110

C65 111 53 111 53 112

C51 113 54 116 72 133

C88 146 93 151 93 153

C93 155 83 198 80 205

L80 207

L82 207

C83 206 94 199 106 191

Z

M248 101

L248 100

L245 100

L242 99

L243 100

C243 101 244 101 246 101

L248 101

L248 101

Z

"/>

<path fill="#4abdff" stroke="none" d="
M163 211

C145 199 130 190 130 190

C129 190 122 194 114 199

C80 221 68 229 66 230

L64 231

L63 231

C63 230 67 214 72 194

C77 174 81 157 81 156

C81 155 69 144 51 129

L21 103

L22 102

C22 102 58 100 79 98

C96 98 100 97 101 95

C102 92 98 91 85 90

C77 89 70 89 69 89

L67 89

L67 88

L67 87

L64 87

L62 87

L64 88

L66 88

L66 89

C65 89 58 89 49 89

C41 88 30 88 25 88

L16 89

L17 88

C17 87 21 87 25 87

L34 87

L31 86

C29 86 25 85 21 85

L15 85

L16 86

L16 87

L10 87

C7 87 4 86 3 86

L2 85

L2 86

L3 87

L2 87

L0 87

L0 44

L0 0

L130 0

L260 0

L260 44

L260 87

L254 87

L249 87

L250 86

L250 85

L239 85

L228 85

L229 86

C229 87 232 87 235 87

C238 87 241 87 241 88

L242 89

L220 89

C207 89 190 89 182 89

L166 90

L167 90

L167 91

L165 91

L162 90

L163 91

L163 92

L161 92

L158 91

L158 94

C158 95 158 96 159 97

C160 97 169 98 206 100

C216 101 228 101 231 102

L238 102

L228 111

C223 116 209 127 198 137

C187 147 178 155 178 156

C178 157 182 174 187 194

C192 214 196 231 196 231

L196 232

L163 211

Z

M106 191

C119 183 130 177 130 177

C131 178 142 184 154 192

C167 200 178 207 178 207

L179 207

L179 206

C178 205 175 193 172 179

C167 159 166 152 167 151

C167 150 177 142 188 132

C199 122 208 114 208 113

L208 111

L203 111

C192 111 152 108 151 107

C151 107 149 103 147 99

C145 94 144 90 143 89

L142 88

L140 89

C139 89 138 89 137 89

C136 88 135 88 134 88

L133 88

L133 92

C134 96 143 117 144 118

C145 119 178 121 182 120

L183 120

L182 122

C181 122 174 129 167 135

C159 142 153 148 153 148

C153 148 155 155 157 164

C159 173 161 180 161 182

L161 184

L148 176

C127 162 131 163 119 170

C114 173 107 178 104 180

L98 184

L98 182

C98 181 100 172 102 164

C107 145 109 149 86 130

C80 125 76 121 76 121

L76 120

L77 120

C80 121 113 119 114 118

C116 118 126 94 126 90

L126 88

L125 88

L124 88

L124 89

L125 90

L122 89

C121 89 120 89 119 89

C119 88 118 88 117 88

L116 88

L112 98

C107 109 111 108 75 110

C63 111 52 112 52 112

L51 113

L52 115

C53 116 63 124 73 134

C88 146 93 151 93 153

C93 155 83 198 80 205

L80 207

L82 207

C83 206 94 199 106 191

Z

M99 89

L99 88

L98 88

C98 88 97 88 96 89

L95 90

L96 90

C97 90 98 90 99 89

Z

M93 88

L93 87

L84 87

L74 88

L74 88

L74 89

L83 89

C88 89 92 88 93 88

Z

M171 88

C170 87 169 87 169 87

L168 87

L169 88

C169 89 170 89 171 89

L173 89

L171 88

Z

M58 87

L58 86

L50 86

L41 86

L42 87

C42 88 57 88 58 87

Z

M219 87

L219 86

L210 86

L201 86

L202 87

C202 88 206 88 210 88

C214 88 218 88 219 87

Z

"/>

<path fill="#4ec0ff" stroke="none" d="
M163 211

C145 199 130 190 130 190

C129 190 122 194 114 199

C80 221 68 229 66 230

L64 231

L63 231

C63 230 67 214 72 194

C77 174 81 157 81 156

C81 155 69 144 51 129

L21 103

L21 102

C22 102 39 101 61 100

C82 98 100 97 100 97

C101 96 105 86 105 84

L105 82

L103 82

C102 82 100 82 99 82

L97 81

L97 83

L98 84

L96 84

L95 84

L95 83

L95 82

L91 82

L86 83

L87 82

L88 81

L84 81

L79 81

L80 82

L81 83

L79 83

L76 83

L77 82

L78 81

L59 81

L40 81

L41 81

L41 82

L39 82

C38 82 33 82 28 82

C23 82 14 81 9 81

L0 81

L0 41

L0 0

L130 0

L260 0

L260 41

L260 81

L249 81

C242 81 238 81 237 80

L236 79

L237 80

L237 82

L223 81

C216 81 209 81 208 80

L206 80

L207 81

L208 83

L206 83

L204 83

L204 82

L205 81

L201 81

C199 81 193 81 188 81

L179 81

L179 82

L180 83

L173 82

C169 82 166 82 166 82

C165 82 162 81 158 82

L157 82

L158 83

L158 85

L157 83

C156 83 155 82 155 82

L154 82

L154 84

C154 85 155 88 156 91

C159 98 155 97 195 99

C211 100 227 101 231 102

L238 102

L228 111

C223 116 209 127 198 137

C187 147 178 155 178 156

C178 157 182 174 187 194

C192 214 196 231 196 231

L196 232

L163 211

Z

M106 191

C119 183 130 177 130 177

C131 178 142 184 154 192

C167 200 178 207 178 207

L179 207

L179 206

C178 205 175 193 172 179

C167 159 166 152 167 151

C167 150 177 142 188 132

C199 122 208 114 208 113

L208 111

L204 111

C193 111 152 108 151 107

C151 107 149 103 148 100

C143 88 140 81 139 81

L138 81

L138 83

L138 85

L137 83

C137 82 135 82 133 82

L131 83

L131 85

C131 88 143 117 144 118

C145 119 153 119 162 120

C171 120 179 120 181 120

L183 121

L182 122

C181 123 174 129 167 135

C159 142 153 148 153 148

C153 148 155 155 157 164

C159 173 161 180 161 182

L161 184

L148 176

C127 162 131 163 119 170

C114 173 107 178 104 180

L98 184

L98 182

C98 181 100 172 102 164

C107 145 109 149 86 130

C80 125 76 121 76 121

L76 120

L77 120

C80 121 113 119 114 118

C116 118 129 87 129 83

L129 82

L128 82

C127 82 125 82 124 82

C123 82 122 81 122 81

L121 80

L120 82

C119 83 116 89 113 96

C108 108 108 108 101 108

C92 109 59 111 54 111

L51 111

L51 112

C51 113 60 122 72 132

C87 146 93 151 93 153

C93 155 83 198 80 205

L80 207

L82 207

C83 206 94 199 106 191

Z

M101 84

L101 83

L102 84

C103 84 103 84 103 84

L103 85

L102 85

L100 85

L101 84

Z

M122 84

L121 83

L122 83

C124 82 125 83 125 84

L125 85

L124 85

C124 85 123 85 122 84

Z

"/>

<path fill="#50beff" stroke="none" d="
M163 211

C145 199 130 190 130 190

C129 190 122 194 114 199

C80 221 68 229 66 230

L64 231

L63 231

C63 230 67 214 72 194

C77 174 81 157 81 156

C81 155 69 144 51 129

L21 103

L21 102

C22 102 38 101 57 100

C105 97 100 98 103 90

C105 86 106 82 106 81

L106 78

L104 78

C103 78 102 78 102 79

C101 80 100 80 100 80

L99 80

L100 79

L100 78

L99 78

L98 78

L98 77

L99 76

L89 77

C84 78 80 79 79 79

C79 80 77 80 75 80

L72 80

L73 79

C73 78 74 78 76 78

L79 78

L77 77

C75 77 73 76 72 77

C71 77 69 77 69 77

C68 77 53 77 35 76

L2 76

L2 77

L2 78

L1 78

C0 77 0 63 0 38

L0 0

L130 0

L260 0

L260 39

L260 78

L259 78

L258 78

L258 77

L258 76

L234 76

L209 77

L209 76

L209 75

L208 75

L206 75

L206 76

L206 77

L187 77

C176 77 167 77 166 77

C164 77 156 78 153 78

L152 78

L152 80

C152 80 153 85 155 89

C159 98 154 97 195 99

C211 100 227 101 231 102

L238 102

L228 111

C223 116 209 127 198 137

C187 147 178 155 178 156

C178 157 182 174 187 194

C192 214 196 231 196 231

L196 232

L163 211

Z

M106 191

C119 183 130 177 130 177

C131 178 142 184 154 192

C167 200 178 207 178 207

L179 207

L179 206

C178 205 175 193 172 179

C167 159 166 152 167 151

C167 150 177 142 188 132

C199 122 208 114 208 113

L208 111

L204 111

C193 111 152 108 151 107

C151 107 148 102 146 96

C141 83 138 77 137 76

C136 75 135 76 134 76

C133 77 130 77 128 77

L125 76

L126 77

L128 78

L126 78

L124 79

L125 78

L125 77

L124 76

C123 76 122 76 121 76

C121 77 118 84 115 92

C111 100 108 107 108 108

C107 108 63 111 55 111

L51 111

L51 112

C51 113 60 122 72 132

C87 146 93 151 93 153

C93 155 83 198 80 205

L80 207

L82 207

C83 206 94 199 106 191

Z

M42 79

L43 78

L44 79

L45 80

L43 80

L41 80

L42 79

Z

M62 79

C62 78 63 78 64 78

C65 78 66 78 67 79

L67 80

L64 80

L61 80

L62 79

Z

M183 79

L182 78

L189 78

C193 78 196 78 197 79

L197 80

L191 80

C187 80 184 80 183 79

Z

M205 79

L204 78

L205 78

C205 78 206 78 207 79

L207 80

L206 80

C206 80 205 80 205 79

Z

M224 78

C225 78 227 78 228 78

L230 79

L226 79

L222 79

L224 78

Z

M98 182

C98 181 100 172 102 164

C107 145 109 149 86 130

C80 125 76 121 76 121

L76 120

L77 120

C80 121 113 119 114 118

C115 118 118 112 123 101

L129 84

L130 86

C141 112 143 118 144 118

C145 119 153 119 162 120

C171 120 179 120 181 120

L183 121

L182 122

C181 123 174 129 167 135

C159 142 153 148 153 148

C153 148 155 155 157 164

C159 173 161 180 161 182

L161 184

L148 176

C127 162 131 163 119 170

C114 173 107 178 104 180

L98 184

L98 182

Z

"/>

<path fill="#54bbff" stroke="none" d="
M163 211

C145 199 130 190 130 190

C129 190 122 194 114 199

C80 221 68 229 66 230

L64 231

L63 231

C63 230 67 214 72 194

C77 174 81 157 81 156

C81 155 69 144 51 129

L21 103

L21 102

C22 102 38 101 58 100

C78 99 96 98 98 97

C100 97 101 96 103 90

C105 86 106 82 106 81

L106 78

L104 78

C103 78 102 78 102 79

C101 80 100 80 100 80

L99 80

L100 79

L100 78

L99 78

L98 78

L98 77

L99 76

L89 77

C84 78 80 79 79 79

C79 80 77 80 75 80

L72 80

L73 79

C73 78 74 78 76 78

L79 78

L77 77

C75 77 73 76 72 77

C71 77 69 77 69 77

C68 77 53 77 35 76

L2 76

L2 77

L2 78

L1 78

C0 77 0 63 0 38

L0 0

L130 0

L260 0

L260 39

L260 78

L259 78

L258 78

L258 77

L258 76

L234 76

L209 77

L209 76

L209 75

L208 75

L206 75

L206 76

L206 77

L187 77

C176 77 167 77 166 77

C164 77 156 78 153 78

L152 78

L152 80

C152 80 153 85 155 89

C158 96 158 97 161 97

C163 98 178 99 194 99

C210 100 227 101 231 102

L238 102

L228 111

C223 116 209 127 198 137

C187 147 178 155 178 156

C178 157 182 174 187 194

C192 214 196 231 196 231

L196 232

L163 211

Z

M106 191

C119 183 130 177 130 177

C131 178 142 184 154 192

C167 200 178 207 178 207

L179 207

L179 206

C178 205 175 193 172 179

C167 159 166 152 167 151

C167 150 177 142 188 132

C199 122 208 114 208 113

L208 111

L195 111

C170 109 152 108 151 107

C151 107 148 102 146 96

C141 83 138 77 137 76

C136 75 135 76 134 76

C133 77 130 77 128 77

L125 76

L126 77

L128 78

L126 78

L124 79

L124 78

L125 77

L123 76

L121 76

L119 81

C118 83 115 91 113 97

C108 108 108 108 100 108

C91 109 59 111 54 111

L51 111

L51 112

C51 113 60 122 72 132

C87 146 93 151 93 153

C93 155 83 198 80 205

L80 207

L82 207

C83 206 94 199 106 191

Z

M42 79

L43 78

L44 79

L45 80

L43 80

L41 80

L42 79

Z

M62 79

C62 78 63 78 64 78

C65 78 66 78 67 79

L67 80

L64 80

L61 80

L62 79

Z

M183 79

L182 78

L189 78

C193 78 196 78 197 79

L197 80

L191 80

C187 80 184 80 183 79

Z

M205 79

L204 78

L205 78

C205 78 206 78 207 79

L207 80

L206 80

C206 80 205 80 205 79

Z

M224 78

C225 78 227 78 228 78

L230 79

L226 79

L222 79

L224 78

Z

M98 182

C98 181 100 172 102 164

C107 145 109 149 86 130

C80 125 76 121 76 121

L76 120

L77 120

C80 121 113 119 115 118

C115 118 119 110 123 101

L129 84

L130 86

C141 112 143 118 144 118

C145 119 153 119 162 120

C171 120 179 120 181 120

L183 121

L182 122

C181 123 174 129 167 135

C159 142 153 148 153 148

C153 148 155 155 157 164

C159 173 161 180 161 182

L161 184

L148 176

C127 162 131 163 119 170

C114 173 107 178 104 180

L98 184

L98 182

Z

"/>

<path fill="#53bfff" stroke="none" d="
M163 211

C145 199 130 190 130 190

C129 190 122 194 114 199

C80 221 68 229 66 230

L64 231

L63 231

C63 230 67 214 72 194

C77 174 81 157 81 156

C81 155 69 144 51 129

L21 103

L21 102

C22 102 38 101 58 100

C78 99 96 98 98 97

C100 97 101 96 103 90

C105 86 106 82 106 81

L106 78

L104 78

C103 78 102 78 102 79

C101 80 100 80 100 80

L99 80

L100 79

L100 78

L99 78

L98 78

L98 77

L99 76

L89 77

C84 78 80 79 79 79

C79 80 77 80 75 80

L72 80

L73 79

C73 78 74 78 76 78

L79 78

L77 77

C75 77 73 76 72 77

C71 77 69 77 69 77

C68 77 53 77 35 76

L2 76

L2 77

L2 78

L1 78

C0 77 0 63 0 38

L0 0

L130 0

L260 0

L260 39

L260 78

L259 78

L258 78

L258 77

L258 76

L234 76

L209 77

L209 76

L209 75

L208 75

L206 75

L206 76

L206 77

L187 77

C176 77 167 77 166 77

C164 77 156 78 153 78

L152 78

L152 80

C152 80 153 85 155 89

C158 96 158 97 161 97

C163 98 178 99 194 99

C210 100 227 101 231 102

L238 102

L228 111

C223 116 209 127 198 137

C187 147 178 155 178 156

C178 157 182 174 187 194

C192 214 196 231 196 231

L196 232

L163 211

Z

M106 191

C119 183 130 177 130 177

C131 178 142 184 154 192

C167 200 178 207 178 207

L179 207

L179 206

C178 205 175 193 172 179

C167 159 166 152 167 151

C167 150 177 142 188 132

C199 122 208 114 208 113

L208 111

L195 111

C170 109 152 108 151 107

C151 107 148 102 146 96

C141 83 138 77 137 76

C136 75 135 76 134 76

C133 77 130 77 128 77

L125 76

L126 77

L128 78

L126 78

L124 79

L124 78

L125 77

L123 76

L121 76

L119 81

C118 83 115 91 113 97

C108 108 108 108 100 108

C91 109 59 111 54 111

L51 111

L51 112

C51 113 60 122 72 132

C87 146 93 151 93 153

C93 155 83 198 80 205

L80 207

L82 207

C83 206 94 199 106 191

Z

M42 79

L43 78

L44 79

L45 80

L43 80

L41 80

L42 79

Z

M62 79

C62 78 63 78 64 78

C65 78 66 78 67 79

L67 80

L64 80

L61 80

L62 79

Z

M183 79

L182 78

L189 78

C193 78 196 78 197 79

L197 80

L191 80

C187 80 184 80 183 79

Z

M205 79

L204 78

L205 78

C205 78 206 78 207 79

L207 80

L206 80

C206 80 205 80 205 79

Z

M224 78

C225 78 227 78 228 78

L230 79

L226 79

L222 79

L224 78

Z

M98 182

C98 181 100 172 102 164

C107 145 109 149 86 130

C80 125 76 121 76 121

L76 120

L77 120

C80 121 113 119 115 118

C115 118 119 110 123 101

L129 84

L130 86

C141 112 143 118 144 118

C145 119 153 119 162 120

C171 120 179 120 181 120

L183 121

L182 122

C181 123 174 129 167 135

C159 142 153 148 153 148

C153 148 155 155 157 164

C159 173 161 180 161 182

L161 184

L148 176

C127 162 131 163 119 170

C114 173 107 178 104 180

L98 184

L98 182

Z

"/>

<path fill="#52c1ff" stroke="none" d="
M163 211

C145 199 130 190 130 190

C129 190 122 194 114 199

C80 221 68 229 66 230

L64 231

L63 231

C63 230 67 214 72 194

C77 174 81 157 81 156

C81 155 71 146 59 135

C47 125 34 114 30 110

L22 103

L22 102

C23 102 60 100 84 98

C101 98 100 98 103 90

C105 86 106 82 106 81

L106 78

L104 78

C103 78 102 78 102 79

C101 80 100 80 100 80

L99 80

L100 79

L100 78

L99 78

L98 78

L98 77

L99 76

L89 77

C84 78 80 79 79 79

C79 80 77 80 75 80

L72 80

L73 79

C73 78 74 78 76 78

L79 78

L77 77

C75 77 73 76 72 77

C71 77 69 77 69 77

C68 77 53 77 35 76

L2 76

L2 77

L2 78

L1 78

C0 77 0 63 0 38

L0 0

L130 0

L260 0

L260 39

L260 78

L259 78

L258 78

L258 77

L258 76

L234 76

L209 77

L209 76

L209 75

L208 75

L206 75

L206 76

L206 77

L187 77

C176 77 167 77 166 77

C164 77 156 78 153 78

L152 78

L152 80

C152 80 153 85 155 89

C157 95 159 97 160 97

C162 98 176 99 193 99

C210 100 227 101 231 102

L238 102

L228 111

C223 116 209 127 198 137

C187 147 178 155 178 156

C178 157 182 174 187 194

C192 214 196 231 196 231

L196 232

L163 211

Z

M106 191

C119 183 130 177 130 177

C131 178 142 184 154 192

C167 200 178 207 178 207

L179 207

L179 206

C178 205 175 193 172 179

C167 159 166 152 167 151

C167 150 177 142 188 132

C199 122 208 114 208 113

L208 111

L195 111

C170 109 152 108 151 107

C151 107 148 102 146 96

C141 83 138 77 137 76

C136 75 135 76 134 76

C133 77 130 77 128 77

L125 76

L126 77

L128 78

L126 78

L124 79

L124 78

L125 77

L123 76

L121 76

L119 81

C118 83 115 91 113 97

C108 108 108 108 100 108

C91 109 59 111 54 111

L51 111

L51 112

C51 113 60 122 72 132

C87 146 93 151 93 153

C93 155 83 198 80 205

L80 207

L82 207

C83 206 94 199 106 191

Z

M42 79

L43 78

L44 79

L45 80

L43 80

L41 80

L42 79

Z

M62 79

C62 78 63 78 64 78

C65 78 66 78 67 79

L67 80

L64 80

L61 80

L62 79

Z

M183 79

L182 78

L189 78

C193 78 196 78 197 79

L197 80

L191 80

C187 80 184 80 183 79

Z

M205 79

L204 78

L205 78

C205 78 206 78 207 79

L207 80

L206 80

C206 80 205 80 205 79

Z

M224 78

C225 78 227 78 228 78

L230 79

L226 79

L222 79

L224 78

Z

M98 182

C98 181 100 173 102 164

C104 156 106 148 106 148

C106 148 99 142 92 135

C84 128 77 122 77 121

L76 120

L77 120

C80 121 113 119 115 118

C115 118 119 110 123 101

L129 84

L130 86

C141 112 143 118 144 118

C145 119 153 119 162 120

C171 120 179 120 181 120

L183 121

L182 122

C181 123 174 129 167 135

C159 142 153 148 153 148

C153 148 155 155 157 164

C159 173 161 180 161 182

L161 184

L148 176

C127 162 131 163 119 170

C114 173 107 178 104 180

L98 184

L98 182

Z

"/>

<path fill="#56c4ff" stroke="none" d="
M163 211

C145 199 130 190 130 190

C129 190 122 194 114 199

C80 221 68 229 66 230

L64 231

L63 231

C63 230 67 214 72 194

C77 174 81 157 81 156

C81 155 71 146 59 135

C47 125 34 114 30 110

L22 103

L22 102

C23 102 60 100 84 98

C102 98 100 98 104 88

C106 83 108 78 108 76

L108 74

L107 75

C106 75 102 76 98 75

L90 75

L91 74

L91 73

L86 73

C63 73 38 73 37 74

L36 74

L36 73

L37 72

L33 72

L29 72

L29 73

L30 74

L28 74

L26 74

L27 73

L27 72

L23 72

L19 72

L19 73

L20 74

L18 74

L16 74

L17 73

L17 72

L11 72

L5 72

L5 73

L6 74

L3 74

L0 74

L0 37

L0 0

L130 0

L260 0

L260 36

L260 73

L254 73

C251 73 248 73 247 73

C247 74 246 74 245 74

L243 74

L244 73

L244 72

L240 72

L235 72

L235 73

L236 74

L234 74

L232 74

L233 73

L233 72

L230 72

L227 72

L227 73

L228 74

L226 74

L223 74

L224 73

L224 72

L222 72

L220 72

L221 73

L221 74

L219 73

L217 72

L217 73

C216 73 215 73 213 73

L210 74

L211 73

L211 72

L208 72

L204 72

L205 73

L205 74

L204 73

C203 73 201 72 199 72

L196 72

L197 73

L199 74

L197 74

C197 74 196 74 196 73

C195 73 188 73 178 73

C166 73 161 73 161 74

L160 76

L160 74

L160 73

L156 73

L153 73

L154 75

L156 76

L156 76

C155 76 154 76 153 75

L151 74

L151 76

C151 78 153 83 155 88

C157 95 159 97 160 97

C162 98 176 99 193 99

C210 100 227 101 231 102

L238 102

L228 111

C223 116 209 127 198 137

C187 147 178 155 178 156

C178 157 182 174 187 194

C192 214 196 231 196 231

L196 232

L163 211

Z

M106 191

C119 183 130 177 130 177

C131 178 142 184 154 192

C167 200 178 207 178 207

L179 207

L179 206

C178 205 175 193 172 179

C167 159 166 152 167 151

C167 150 177 142 188 132

C199 122 208 114 208 113

L208 111

L195 111

C170 109 152 108 151 107

C151 107 148 99 144 91

C141 82 137 74 136 73

C134 71 133 71 129 71

C123 72 123 71 114 93

C111 101 108 107 108 108

C107 108 85 110 64 111

L51 111

L51 113

C51 113 60 122 72 132

C87 146 93 151 93 153

C93 155 83 198 80 205

L80 207

L82 207

C83 206 94 199 106 191

Z

M105 74

L105 73

L103 73

L101 73

L102 74

C102 75 103 75 103 75

C103 75 104 75 105 74

Z

M98 182

C98 181 100 173 102 164

C104 156 106 148 106 148

C106 148 99 142 92 135

C84 128 77 122 77 121

L76 120

L77 120

C80 121 113 119 115 118

C115 118 119 111 122 102

L129 86

L130 86

L131 86

L131 87

C131 89 143 117 144 118

C145 119 153 119 162 120

C171 120 179 120 181 120

L183 121

L182 122

C181 123 174 129 167 135

C159 142 153 148 153 148

C153 148 155 155 157 164

C159 173 161 180 161 182

L161 184

L148 176

C127 162 131 163 119 170

C114 173 107 178 104 180

L98 184

L98 182

Z

M131 73

L130 72

L132 72

L134 72

L134 73

L134 74

L133 74

C132 74 131 74 131 73

Z

"/>

<path fill="#5dc7ff" stroke="none" d="
M163 211

C145 199 130 190 130 190

C129 190 122 194 114 199

C80 221 68 229 66 230

L64 231

L63 231

C63 230 67 214 72 194

C77 174 81 157 81 156

C81 155 71 146 59 135

C47 125 34 114 30 110

L22 103

L22 102

C23 102 63 99 85 98

C93 98 99 97 100 97

C101 96 110 76 110 71

L111 68

L110 68

C109 68 108 69 107 69

C106 71 104 71 102 69

L101 68

L104 69

L108 69

L105 68

C104 67 102 67 101 68

C100 68 97 69 96 69

L93 70

L94 68

L95 66

L93 66

L92 66

L93 67

L93 68

L89 68

L85 68

L86 67

L86 66

L77 66

L68 66

L69 67

L71 68

L68 68

L66 68

L66 67

L67 66

L35 66

L2 66

L2 67

L2 68

L1 68

L0 68

L0 34

L0 0

L130 0

L260 0

L260 34

L260 68

L259 68

L258 68

L258 67

L258 66

L215 66

L171 66

L172 67

L172 68

L169 68

L166 68

L166 67

L167 66

L164 66

L161 66

L162 68

L163 70

L158 68

C156 68 153 67 152 67

L151 67

L152 69

L153 70

L152 70

C152 70 151 70 151 69

C150 68 149 68 149 68

L148 68

L148 70

C148 70 150 77 153 84

C157 94 159 97 160 97

C162 98 176 99 193 99

C210 100 227 101 231 102

L238 102

L228 111

C223 116 209 127 198 137

C187 147 178 155 178 156

C178 157 182 174 187 194

C192 214 196 231 196 231

L196 232

L163 211

Z

M106 191

C119 183 130 177 130 177

C131 178 142 184 154 192

C167 200 178 207 178 207

L179 207

L179 206

C178 205 175 193 172 179

C167 159 166 152 167 151

C167 150 177 141 188 131

L209 113

L208 112

C208 112 197 111 185 110

C147 108 152 110 144 90

C134 65 134 65 130 65

C126 65 125 67 120 79

C118 83 115 91 112 97

C108 108 108 108 100 108

C90 109 59 111 54 111

L50 111

L50 112

C50 113 51 114 52 115

C53 116 63 124 73 134

C88 146 93 151 93 153

C93 155 83 198 80 205

L80 207

L82 207

C83 206 94 199 106 191

Z

M49 67

L50 67

L51 67

L51 68

L49 68

L48 68

L49 67

Z

M98 182

C98 181 100 173 102 164

C104 156 106 148 106 148

C106 148 99 142 92 135

C84 128 77 122 77 121

L76 120

L77 120

C80 121 113 119 115 118

C115 118 119 111 122 102

L129 86

L130 86

L131 86

L131 87

C131 89 143 117 144 118

C145 119 153 119 162 120

C171 120 179 120 181 120

L183 121

L182 122

C181 123 174 129 167 135

C159 142 153 148 153 148

C153 148 155 155 157 164

C159 173 161 180 161 182

L161 184

L148 176

C127 162 131 163 119 170

C114 173 107 178 104 180

L98 184

L98 182

Z

"/>

<path fill="#65ccff" stroke="none" d="
M163 211

C145 199 130 190 130 190

C129 190 122 194 114 199

C80 221 68 229 66 230

L64 231

L63 231

C63 230 67 214 72 194

C77 174 81 157 81 156

C81 155 71 146 59 135

C47 125 34 114 30 110

L22 103

L22 102

C23 102 63 99 85 98

C93 98 99 97 100 97

C101 96 114 64 114 62

L113 61

L111 61

L108 61

L108 60

L109 59

L106 60

C105 60 103 60 102 60

L100 60

L100 61

L100 62

L98 62

L95 62

L95 61

L95 60

L96 60

L98 59

L89 59

C84 59 77 59 72 59

L64 59

L64 59

L64 60

L48 59

C39 59 29 59 25 59

L19 58

L19 59

L20 60

L10 59

L0 59

L0 29

L0 0

L130 0

L260 0

L260 30

L260 59

L237 59

C224 59 202 59 189 59

L164 60

L164 59

L165 59

L160 59

L155 59

L156 60

L156 61

L153 60

C152 60 150 60 149 61

L148 62

L148 61

C147 60 146 60 146 60

L145 60

L145 62

C145 63 148 71 152 81

C157 94 159 97 160 97

C162 98 177 99 195 100

C212 100 229 102 232 102

L237 103

L228 111

C223 116 209 127 198 137

C187 147 178 155 178 156

C178 157 182 174 187 194

C192 214 196 231 196 231

L196 232

L163 211

Z

M106 191

C119 183 130 177 130 177

C131 178 142 184 154 192

C167 200 178 207 178 207

L179 207

L179 206

C178 205 175 193 172 179

C167 159 166 152 167 151

C167 150 177 141 188 131

L209 113

L208 112

C208 112 197 111 185 110

C147 108 152 111 142 86

C137 73 132 62 132 61

L131 59

L130 59

C128 59 127 61 121 76

C119 82 115 91 112 97

C108 108 108 108 100 108

C90 109 59 111 54 111

L50 111

L50 112

C50 113 51 114 52 115

C53 116 63 124 73 134

C88 146 93 151 93 153

C93 155 83 198 80 205

L80 207

L82 207

C83 206 94 199 106 191

Z

M158 61

L157 60

L158 60

C158 60 159 60 160 61

L160 62

L159 62

C159 62 158 62 158 61

Z

M98 182

C98 181 100 173 102 164

C104 156 106 148 106 148

C106 148 99 142 92 135

C84 128 77 122 77 121

L76 120

L77 120

C80 121 113 119 115 118

C115 118 119 111 122 102

L129 86

L130 86

L131 86

L131 87

C131 89 143 117 144 118

C145 119 153 119 162 120

C171 120 179 120 181 120

L183 121

L182 122

C181 123 174 129 167 135

C159 142 153 148 153 148

C153 148 155 155 157 164

C159 173 161 180 161 182

L161 184

L148 176

C127 162 131 163 119 170

C114 173 107 178 104 180

L98 184

L98 182

Z

"/>

<path fill="#71d2ff" stroke="none" d="
M163 211

C145 199 130 190 130 190

C129 190 122 194 114 199

C80 221 68 229 66 230

L64 231

L63 231

C63 230 67 214 72 194

C77 174 81 157 81 156

C81 155 71 146 59 135

C47 125 34 114 30 110

L22 103

L22 102

C23 102 63 99 85 98

C93 98 99 97 100 97

C101 96 119 53 119 50

L119 47

L117 47

L115 47

L115 48

L115 50

L114 48

C113 47 111 47 103 47

C98 47 93 47 92 48

L90 48

L90 47

L91 46

L90 46

L88 46

L88 45

L89 45

L83 45

L76 45

L77 45

L77 46

L73 46

L69 46

L70 47

L70 48

L68 48

L66 48

L67 47

L67 46

L61 46

L54 46

L54 47

L55 48

L52 47

C51 46 48 46 46 46

L42 46

L42 45

L43 44

L35 45

C30 45 21 45 15 46

L3 46

L3 45

L4 44

L3 44

L2 44

L2 45

L2 46

L1 46

L0 46

L0 23

L0 0

L130 0

L260 0

L260 23

L260 46

L259 46

C259 46 258 46 258 45

C257 44 248 44 242 46

L238 46

L238 45

L238 44

L234 45

C231 46 223 46 214 46

L199 46

L199 45

L200 45

L190 45

L181 45

L181 45

L181 46

L174 46

L168 46

L168 47

L169 48

L168 47

C167 47 163 47 159 47

C155 46 151 46 150 46

L148 45

L148 46

L149 47

L146 47

L143 46

L144 47

L144 48

L142 48

L140 47

L140 49

C140 51 144 62 149 74

C157 93 159 97 160 97

C162 98 177 99 195 100

C212 100 229 102 232 102

L237 103

L228 111

C223 116 209 127 198 137

C187 147 178 155 178 156

C178 157 182 174 187 194

C192 214 196 231 196 231

L196 232

L163 211

Z

M106 191

C119 183 130 177 130 177

C131 178 142 184 154 192

C167 200 178 207 178 207

L179 207

L179 206

C178 205 175 193 172 179

C167 159 166 152 167 151

C167 150 177 141 188 131

L209 113

L208 112

C208 112 197 111 185 110

C172 109 159 109 156 108

C151 108 151 108 148 100

C146 96 142 85 138 75

L131 58

L129 58

L128 58

L123 72

C119 80 115 91 112 97

C108 108 108 108 100 108

C90 109 59 111 54 111

L50 111

L50 112

C50 113 51 114 52 115

C53 116 63 124 73 134

C88 146 93 151 93 153

C93 155 83 198 80 205

L80 207

L82 207

C83 206 94 199 106 191

Z

M25 47

L26 47

L27 47

L27 48

L25 48

L24 48

L25 47

Z

M245 47

C245 46 246 46 247 46

C247 46 248 46 249 47

L249 48

L247 48

L244 48

L245 47

Z

M252 47

C253 46 254 46 256 47

L259 48

L255 48

L251 48

L252 47

Z

M98 182

C98 181 100 173 102 164

C104 156 106 148 106 148

C106 148 99 141 91 134

L77 122

L78 121

C79 121 87 120 96 120

C105 119 113 119 114 118

C115 118 118 112 122 102

L129 86

L130 86

L131 86

L131 87

C131 89 143 117 144 118

C145 119 153 119 162 119

C171 120 179 120 180 121

L182 122

L168 134

C160 142 153 148 153 148

C153 148 155 155 157 164

C159 173 161 180 161 182

L161 184

L148 176

C127 162 131 163 119 170

C114 173 107 178 104 180

L98 184

L98 182

Z

"/>

<path fill="#78d6fe" stroke="none" d="
M163 211

C145 199 130 190 130 190

C129 190 122 194 114 199

C80 221 68 229 66 230

L64 231

L63 231

C63 230 67 214 72 194

C77 174 81 157 81 156

C81 155 71 146 59 135

C47 125 34 114 30 110

L22 103

L22 102

C23 102 63 99 85 98

C93 98 99 97 100 97

C101 96 127 33 127 31

L127 30

L126 30

L126 31

L124 30

L123 29

L123 30

L123 32

L122 32

L121 32

L122 31

L122 30

L119 31

L116 31

L116 30

L117 29

L111 29

L105 30

L106 29

L106 28

L103 28

C101 28 77 28 50 28

L0 28

L0 14

L0 0

L130 0

L260 0

L260 14

L260 28

L256 28

C221 28 159 28 158 27

L157 27

L158 28

L159 30

L150 30

L141 29

L142 30

L142 31

L140 31

L138 30

L138 31

L139 32

L136 31

C134 30 132 30 132 30

L132 30

L132 31

C132 32 135 40 139 49

C143 58 148 73 152 81

C157 94 159 97 160 97

C162 98 177 99 195 100

C212 100 229 102 232 102

L237 103

L228 111

C223 116 209 127 198 137

C187 147 178 155 178 156

C178 157 182 174 187 194

C192 214 196 231 196 231

L196 232

L163 211

Z

M106 191

C119 183 130 177 130 177

C131 178 142 184 154 192

C167 200 178 207 178 207

L179 207

L179 206

C178 205 175 193 172 179

C167 159 166 152 167 151

C167 150 177 141 188 131

L209 113

L208 112

C208 112 197 111 185 110

C147 108 152 112 141 82

L131 57

L130 57

L129 57

L123 71

C120 78 115 90 113 96

C108 108 108 108 100 108

C90 109 59 111 54 111

L50 111

L50 112

C50 113 51 114 52 115

C53 116 63 124 73 134

C88 146 93 151 93 153

C93 155 83 198 80 205

L80 207

L82 207

C83 206 94 199 106 191

Z

M248 26

L248 25

L246 25

L245 25

L246 26

C246 27 247 27 247 27

L248 27

L248 26

Z

M98 182

C98 181 100 173 102 164

C104 156 106 148 106 148

C106 148 99 141 91 134

L77 122

L78 121

C79 121 87 120 96 120

C105 119 113 119 114 118

C115 118 118 112 122 102

L129 86

L130 86

L131 86

L131 87

C131 89 143 117 144 118

C145 119 153 119 162 119

C171 120 179 120 180 121

L182 122

L168 134

C160 142 153 148 153 148

C153 148 155 155 157 164

C159 173 161 180 161 182

L161 184

L148 176

C127 162 131 163 119 170

C114 173 107 178 104 180

L98 184

L98 182

Z

"/>

<path fill="#78d6fe" stroke="none" d="
M163 211

C145 199 130 190 130 190

C129 190 122 194 114 199

C80 221 68 229 66 230

L64 231

L63 231

C63 230 67 214 72 194

C77 174 81 157 81 156

C81 155 71 146 59 135

C47 125 34 114 30 110

L22 103

L22 102

C23 102 63 99 85 98

C93 98 99 97 100 97

C101 96 127 33 127 31

L127 30

L126 30

L126 31

L124 30

L123 29

L123 30

L123 32

L122 32

L121 32

L122 31

L122 30

L119 31

L116 31

L116 30

L117 29

L111 29

L105 30

L106 29

L106 28

L103 28

C101 28 77 28 50 28

L0 28

L0 14

L0 0

L130 0

L260 0

L260 14

L260 28

L256 28

C221 28 159 28 158 27

L157 27

L158 28

L159 30

L150 30

L141 29

L142 30

L142 31

L140 31

L138 30

L138 31

L139 32

L136 31

C134 30 132 30 132 30

L132 30

L132 31

C132 32 135 40 139 49

C143 58 148 73 152 81

C157 94 159 97 160 97

C162 98 177 99 195 100

C212 100 229 102 232 102

L237 103

L228 111

C223 116 209 127 198 137

C187 147 178 155 178 156

C178 157 182 174 187 194

C192 214 196 231 196 231

L196 232

L163 211

Z

M106 191

C119 183 130 177 130 177

C131 178 142 184 154 192

C167 200 178 207 178 207

L179 207

L179 206

C178 205 175 193 172 179

C167 159 166 152 167 151

C167 150 177 141 188 131

L209 113

L208 112

C208 112 197 111 185 110

C147 108 152 112 141 82

L131 57

L130 57

L129 57

L123 71

C120 78 115 90 113 96

C108 108 108 108 100 108

C90 109 59 111 54 111

L50 111

L50 112

C50 113 51 114 52 115

C53 116 63 124 73 134

C88 146 93 151 93 153

C93 155 83 198 80 205

L80 207

L82 207

C83 206 94 199 106 191

Z

M248 26

L248 25

L246 25

L245 25

L246 26

C246 27 247 27 247 27

L248 27

L248 26

Z

M98 182

C98 181 100 173 102 164

C104 156 106 148 106 148

C106 148 99 141 91 134

L77 122

L78 121

C79 121 87 120 96 120

C105 119 113 119 114 118

C115 118 118 112 122 102

L129 86

L130 86

L131 86

L131 87

C131 89 143 117 144 118

C145 119 153 119 162 119

C171 120 179 120 180 121

L182 122

L168 134

C160 142 153 148 153 148

C153 148 155 155 157 164

C159 173 161 180 161 182

L161 184

L148 176

C127 162 131 163 119 170

C114 173 107 178 104 180

L98 184

L98 182

Z

"/>

<path fill="#78d6ff" stroke="none" d="
M163 211

C145 199 130 190 130 190

C129 190 122 194 114 199

C80 221 68 229 66 230

L64 231

L63 231

C63 230 67 214 72 194

C77 174 81 157 81 156

C81 155 71 146 59 135

C47 125 34 114 30 110

L22 103

L22 102

C23 102 63 99 85 98

C93 98 99 97 100 97

C101 96 127 33 127 31

L127 30

L126 30

L126 31

L124 30

L123 29

L123 30

L123 32

L122 32

L121 32

L122 31

L122 30

L119 31

L116 31

L116 30

L117 29

L111 29

L105 30

L106 29

L106 28

L103 28

C101 28 77 28 50 28

L0 28

L1 27

L3 26

L1 26

L0 26

L0 13

L0 0

L130 0

L260 0

L260 14

L260 28

L256 28

C221 28 159 28 158 27

L157 27

L158 28

L159 30

L150 30

L141 29

L142 30

L142 31

L140 31

L138 30

L138 31

L139 32

L136 31

C134 30 132 30 132 30

L132 30

L132 31

C132 32 135 40 139 49

C143 58 148 73 152 81

C157 94 159 97 160 97

C162 98 177 99 195 100

C212 100 229 102 232 102

L237 103

L228 111

C223 116 209 127 198 137

C187 147 178 155 178 156

C178 157 182 174 187 194

C192 214 196 231 196 231

L196 232

L163 211

Z

M106 191

C119 183 130 177 130 177

C131 178 142 184 154 192

C167 200 178 207 178 207

L179 207

L179 206

C178 205 175 193 172 179

C167 159 166 152 167 151

C167 150 177 141 188 131

L209 113

L208 112

C208 112 197 111 185 110

C147 108 152 112 141 82

L131 57

L130 57

L129 57

L123 71

C120 78 115 90 113 96

C108 108 108 108 100 108

C90 109 59 111 54 111

L50 111

L50 112

C50 113 51 114 52 115

C53 116 63 124 73 134

C88 146 93 151 93 153

C93 155 83 198 80 205

L80 207

L82 207

C83 206 94 199 106 191

Z

M248 26

L248 25

L246 25

L245 25

L246 26

C246 27 247 27 247 27

L248 27

L248 26

Z

M98 182

C98 181 100 173 102 164

C104 156 106 148 106 148

C106 148 99 141 91 134

L77 122

L78 121

C79 121 87 120 96 120

C105 119 113 119 114 118

C115 118 118 112 122 102

L129 86

L130 86

L131 86

L131 87

C131 89 143 117 144 118

C145 119 153 119 162 119

C171 120 179 120 180 121

L182 122

L168 134

C160 142 153 148 153 148

C153 148 155 155 157 164

C159 173 161 180 161 182

L161 184

L148 176

C127 162 131 163 119 170

C114 173 107 178 104 180

L98 184

L98 182

Z

"/>

<path fill="#78d6ff" stroke="none" d="
M163 211

C145 199 130 190 130 190

C129 190 122 194 114 199

C80 221 68 229 66 230

L64 231

L63 231

C63 230 67 214 72 194

C77 174 81 157 81 156

C81 155 71 146 59 135

C47 125 34 114 30 110

L22 103

L22 102

C23 102 63 99 85 98

C93 98 99 97 100 97

C101 96 127 33 127 31

L127 30

L126 30

L126 31

L124 30

L123 29

L123 30

L123 32

L122 32

L121 32

L122 31

L122 30

L119 31

L116 31

L116 30

L117 29

L111 29

L105 30

L106 29

L106 28

L103 28

C101 28 77 28 50 28

L0 28

L1 27

L3 26

L1 26

L0 26

L0 13

L0 0

L130 0

L260 0

L260 14

L260 28

L256 28

C221 28 159 28 158 27

L157 27

L158 28

L159 30

L150 30

L141 29

L142 30

L142 31

L140 31

L138 30

L138 31

L139 32

L136 31

C134 30 132 30 132 30

L132 30

L132 31

C132 32 135 40 139 49

C143 58 148 73 152 81

C157 94 159 97 160 97

C162 98 177 99 195 100

C212 100 229 102 232 102

L237 103

L228 111

C223 116 209 127 198 137

C187 147 178 155 178 156

C178 157 182 174 187 194

C192 214 196 231 196 231

L196 232

L163 211

Z

M106 191

C119 183 130 177 130 177

C131 178 142 184 154 192

C167 200 178 207 178 207

L179 207

L179 206

C178 205 175 193 172 179

C167 159 166 152 167 151

C167 150 177 141 188 131

L209 113

L208 112

C208 112 197 111 185 110

C147 108 152 112 141 82

L131 57

L130 57

L129 57

L123 71

C120 78 115 90 113 96

C108 108 108 108 100 108

C90 109 59 111 54 111

L50 111

L50 112

C50 113 51 114 52 115

C53 116 63 124 73 134

C88 146 93 151 93 153

C93 155 83 198 80 205

L80 207

L82 207

C83 206 94 199 106 191

Z

M248 26

L248 25

L246 25

L245 25

L246 26

C246 27 247 27 247 27

L248 27

L248 26

Z

M98 182

C98 181 100 173 102 164

C104 156 106 148 106 148

C106 148 99 141 91 134

L77 122

L78 121

C79 121 87 120 96 120

C105 119 113 119 114 118

C115 118 118 112 122 102

L129 86

L130 86

L131 86

L131 87

C131 89 143 117 144 118

C145 119 153 119 162 119

C171 120 179 120 180 121

L182 122

L168 134

C160 142 153 148 153 148

C153 148 155 155 157 164

C159 173 161 180 161 182

L161 184

L148 176

C127 162 131 163 119 170

C114 173 107 178 104 180

L98 184

L98 182

Z

"/>

<path fill="#78d6ff" stroke="none" d="
M163 211

C145 199 130 190 130 190

C129 190 122 194 114 199

C80 221 68 229 66 230

L64 231

L63 231

C63 230 67 214 72 194

C77 174 81 157 81 156

C81 155 71 146 59 135

C47 125 34 114 30 110

L22 103

L22 102

C23 102 63 99 85 98

C93 98 99 97 100 97

C101 96 127 33 127 31

L127 30

L126 30

L126 31

L124 30

L123 29

L123 30

L123 32

L122 32

L121 32

L122 31

L122 30

L119 31

L116 31

L116 30

L117 29

L111 29

L105 30

L106 29

L106 28

L103 28

C101 28 77 28 50 28

L0 28

L1 27

L3 26

L1 26

L0 26

L0 13

L0 0

L130 0

L260 0

L260 14

L260 28

L256 28

C221 28 159 28 158 27

L157 27

L158 28

L159 30

L150 30

L141 29

L142 30

L142 31

L140 31

L138 30

L138 31

L139 32

L136 31

C134 30 132 30 132 30

L132 30

L132 31

C132 32 135 40 139 49

C143 58 148 73 152 81

C157 94 159 97 160 97

C162 98 177 99 195 100

C212 100 229 102 232 102

L237 103

L228 111

C223 116 209 127 198 137

C187 147 178 155 178 156

C178 157 182 174 187 194

C192 214 196 231 196 231

L196 232

L163 211

Z

M106 191

C119 183 130 177 130 177

C131 178 142 184 154 192

C167 200 178 207 178 207

L179 207

L179 206

C178 205 175 193 172 179

C167 159 166 152 167 151

C167 150 177 141 188 131

L209 113

L208 112

C208 112 197 111 185 110

C147 108 152 112 141 82

L131 57

L130 57

L129 57

L123 71

C120 78 115 90 113 96

C108 108 108 108 100 108

C90 109 59 111 54 111

L50 111

L50 112

C50 113 51 114 52 115

C53 116 63 124 73 134

C88 146 93 151 93 153

C93 155 83 198 80 205

L80 207

L82 207

C83 206 94 199 106 191

Z

M248 26

L248 25

L246 25

L245 25

L246 26

C246 27 247 27 247 27

L248 27

L248 26

Z

M98 182

C98 181 100 173 102 164

C104 156 106 148 106 148

C106 148 99 141 91 134

L77 122

L78 121

C79 121 87 120 96 120

C105 119 113 119 114 118

C115 118 118 112 122 102

L129 86

L130 86

L131 86

L131 87

C131 89 143 117 144 118

C145 119 153 119 162 119

C171 120 179 120 180 121

L182 122

L168 134

C160 142 153 148 153 148

C153 148 155 155 157 164

C159 173 161 180 161 182

L161 184

L148 176

C127 162 131 163 119 170

C114 173 107 178 104 180

L98 184

L98 182

Z

"/>

<path fill="#78d6ff" stroke="none" d="
M163 211

C145 199 130 190 130 190

C129 190 122 194 114 199

C80 221 68 229 66 230

L64 231

L63 231

C63 230 67 214 72 194

C77 174 81 157 81 156

C81 155 71 146 59 135

C47 125 34 114 30 110

L22 103

L22 102

C23 102 63 99 85 98

C93 98 99 97 100 97

C101 96 127 33 127 31

L127 30

L126 30

L126 31

L124 30

L123 29

L123 30

L123 32

L122 32

L121 32

L122 31

L122 30

L119 31

L116 31

L116 30

L117 29

L111 29

L105 30

L106 29

L106 28

L103 28

C101 28 77 28 50 28

L0 28

L1 27

L3 26

L1 26

L0 26

L0 13

L0 0

L130 0

L260 0

L260 14

L260 28

L256 28

C221 28 159 28 158 27

L157 27

L158 28

L159 30

L150 30

L141 29

L142 30

L142 31

L140 31

L138 30

L138 31

L139 32

L136 31

C134 30 132 30 132 30

L132 30

L132 31

C132 32 135 40 139 49

C143 58 148 73 152 81

C157 94 159 97 160 97

C162 98 177 99 195 100

C212 100 229 102 232 102

L237 103

L228 111

C223 116 209 127 198 137

C187 147 178 155 178 156

C178 157 182 174 187 194

C192 214 196 231 196 231

L196 232

L163 211

Z

M106 191

C119 183 130 177 130 177

C131 178 142 184 154 192

C167 200 178 207 178 207

L179 207

L179 206

C178 205 175 193 172 179

C167 159 166 152 167 151

C167 150 177 141 188 131

L209 113

L208 112

C208 112 197 111 185 110

C147 108 152 112 141 82

L131 57

L130 57

L129 57

L123 71

C120 78 115 90 113 96

C108 108 108 108 100 108

C90 109 59 111 54 111

L50 111

L50 112

C50 113 51 114 52 115

C53 116 63 124 73 134

C88 146 93 151 93 153

C93 155 83 198 80 205

L80 207

L82 207

C83 206 94 199 106 191

Z

M248 26

L248 25

L246 25

L245 25

L246 26

C246 27 247 27 247 27

L248 27

L248 26

Z

M98 182

C98 181 100 173 102 164

C104 156 106 148 106 148

C106 148 99 141 91 134

L77 122

L78 121

C79 121 87 120 96 120

C105 119 113 119 114 118

C115 118 118 112 122 102

L129 86

L130 86

L131 86

L131 87

C131 89 143 117 144 118

C145 119 153 119 162 119

C171 120 179 120 180 121

L182 122

L168 134

C160 142 153 148 153 148

C153 148 155 155 157 164

C159 173 161 180 161 182

L161 184

L148 176

C127 162 131 163 119 170

C114 173 107 178 104 180

L98 184

L98 182

Z

"/>

<path fill="#78d6ff" stroke="none" d="
M163 211

C145 199 130 190 130 190

C129 190 122 194 114 199

C80 221 68 229 66 230

L64 231

L63 231

C63 230 67 214 72 194

C77 174 81 157 81 156

C81 155 71 146 59 135

C47 125 34 114 30 110

L22 103

L22 102

C23 102 63 99 85 98

C93 98 99 97 100 97

C101 96 127 33 127 31

L127 30

L126 30

L126 31

L124 30

L123 29

L123 30

L123 32

L122 32

L121 32

L122 31

L122 30

L119 31

L116 31

L116 30

L117 29

L111 29

L105 30

L106 29

L106 28

L103 28

C101 28 77 28 50 28

L0 28

L1 27

L3 26

L1 26

L0 26

L0 13

L0 0

L130 0

L260 0

L260 14

L260 28

L256 28

C221 28 159 28 158 27

L157 27

L158 28

L159 30

L150 30

L141 29

L142 30

L142 31

L140 31

L138 30

L138 31

L139 32

L136 31

C134 30 132 30 132 30

L132 30

L132 31

C132 32 135 40 139 49

C143 58 148 73 152 81

C157 94 159 97 160 97

C162 98 177 99 195 100

C212 100 229 102 232 102

L237 103

L228 111

C223 116 209 127 198 137

C187 147 178 155 178 156

C178 157 182 174 187 194

C192 214 196 231 196 231

L196 232

L163 211

Z

M106 191

C119 183 130 177 130 177

C131 178 142 184 154 192

C167 200 178 207 178 207

L179 207

L179 206

C178 205 175 193 172 179

C167 159 166 152 167 151

C167 150 177 141 188 131

L209 113

L208 112

C208 112 197 111 185 110

C147 108 152 112 141 82

L131 57

L130 57

L129 57

L123 71

C120 78 115 90 113 96

C108 108 108 108 100 108

C90 109 59 111 54 111

L50 111

L50 112

C50 113 51 114 52 115

C53 116 63 124 73 134

C88 146 93 151 93 153

C93 155 83 198 80 205

L80 207

L82 207

C83 206 94 199 106 191

Z

M248 26

L248 25

L246 25

L245 25

L246 26

C246 27 247 27 247 27

L248 27

L248 26

Z

M98 182

C98 181 100 173 102 164

C104 156 106 148 106 148

C106 148 99 141 91 134

L77 122

L78 121

C79 121 87 120 96 120

C105 119 113 119 114 118

C115 118 118 112 122 102

L129 86

L130 86

L131 86

L131 87

C131 89 143 117 144 118

C145 119 153 119 162 119

C171 120 179 120 180 121

L182 122

L168 134

C160 142 153 148 153 148

C153 148 155 155 157 164

C159 173 161 180 161 182

L161 184

L148 176

C127 162 131 163 119 170

C114 173 107 178 104 180

L98 184

L98 182

Z

"/>

<path fill="#78d6ff" stroke="none" d="
M163 211

C145 199 130 190 130 190

C129 190 122 194 114 199

C80 221 68 229 66 230

L64 231

L63 231

C63 230 67 214 72 194

C77 174 81 157 81 156

C81 155 71 146 59 135

C47 125 34 114 30 110

L22 103

L22 102

C23 102 63 99 85 98

C93 98 99 97 100 97

C101 96 127 33 127 31

L127 30

L126 30

L126 31

L124 30

L123 29

L123 30

L123 32

L122 32

L121 32

L122 31

L122 30

L119 31

L116 31

L116 30

L117 29

L111 29

L105 30

L106 29

L106 28

L103 28

C101 28 77 28 50 28

L0 28

L1 27

L3 26

L1 26

L0 26

L0 13

L0 0

L130 0

L260 0

L260 14

L260 28

L256 28

C221 28 159 28 158 27

L157 27

L158 28

L159 30

L150 30

L141 29

L142 30

L142 31

L140 31

L138 30

L138 31

L139 32

L136 31

C134 30 132 30 132 30

L132 30

L132 31

C132 32 135 40 139 49

C143 58 148 73 152 81

C157 94 159 97 160 97

C162 98 177 99 195 100

C212 100 229 102 232 102

L237 103

L228 111

C223 116 209 127 198 137

C187 147 178 155 178 156

C178 157 182 174 187 194

C192 214 196 231 196 231

L196 232

L163 211

Z

M106 191

C119 183 130 177 130 177

C131 178 142 184 154 192

C167 200 178 207 178 207

L179 207

L179 206

C178 205 175 193 172 179

C167 159 166 152 167 151

C167 150 177 141 188 131

L209 113

L208 112

C208 112 197 111 185 110

C147 108 152 112 141 82

L131 57

L130 57

L129 57

L123 71

C120 78 115 90 113 96

C108 108 108 108 100 108

C90 109 59 111 54 111

L50 111

L50 112

C50 113 51 114 52 115

C53 116 63 124 73 134

C88 146 93 151 93 153

C93 155 83 198 80 205

L80 207

L82 207

C83 206 94 199 106 191

Z

M248 26

L248 25

L246 25

L245 25

L246 26

C246 27 247 27 247 27

L248 27

L248 26

Z

M98 182

C98 181 100 173 102 164

C104 156 106 148 106 148

C106 148 99 141 91 134

L77 122

L78 121

C79 121 87 120 96 120

C105 119 113 119 114 118

C115 118 118 112 122 102

L129 86

L130 86

L131 86

L131 87

C131 89 143 117 144 118

C145 119 153 119 162 119

C171 120 179 120 180 121

L182 122

L168 134

C160 142 153 148 153 148

C153 148 155 155 157 164

C159 173 161 180 161 182

L161 184

L148 176

C127 162 131 163 119 170

C114 173 107 178 104 180

L98 184

L98 182

Z

"/>

<path fill="#7dd9ff" stroke="none" d="
M163 211

C145 199 130 190 130 190

C129 190 122 194 114 199

C80 221 68 229 66 230

L64 231

L63 231

C63 230 67 214 72 194

C77 174 81 157 81 156

C81 155 71 146 59 135

C47 125 34 114 30 110

L22 103

L22 102

C23 102 63 99 85 98

C93 98 99 97 100 97

C100 97 105 86 110 74

C115 62 121 47 123 42

C125 37 127 32 127 31

L127 30

L126 30

L126 31

L124 30

L123 29

L123 30

L123 31

L119 31

L116 31

L117 30

L117 29

L111 29

L105 30

L106 29

L106 28

L103 28

C101 28 77 28 50 28

L0 28

L1 27

L3 26

L1 26

L0 26

L0 13

L0 0

L130 0

L260 0

L260 14

L260 28

L256 28

C221 28 159 28 158 27

L157 27

L158 28

L159 30

L149 30

C143 30 137 30 135 30

L132 30

L132 32

C132 32 135 40 139 49

C143 58 148 73 152 81

C157 94 159 97 160 97

C162 98 177 99 195 100

C212 100 229 102 232 102

L237 103

L228 111

C223 116 209 127 198 137

C187 147 178 155 178 156

C178 157 182 174 187 194

C192 214 196 231 196 231

L196 232

L163 211

Z

M106 191

C119 183 130 177 130 177

C131 178 142 184 154 192

C167 200 178 207 178 207

L179 207

L179 206

C178 205 175 193 172 179

C167 159 166 152 167 151

C167 150 177 141 188 131

L209 113

L208 112

C208 112 197 111 185 110

C147 108 152 112 141 82

L131 57

L130 57

L129 57

L123 71

C120 78 115 90 113 96

C108 108 108 108 100 108

C90 109 59 111 54 111

L50 111

L50 112

C50 113 51 114 52 115

C53 116 63 124 73 134

C88 146 93 151 93 153

C93 155 83 198 80 205

L80 207

L82 207

C83 206 94 199 106 191

Z

M248 26

L248 25

L246 25

L245 25

L246 26

C246 27 247 27 247 27

L248 27

L248 26

Z

M98 182

C98 181 100 173 102 164

C104 156 106 148 106 148

C106 148 99 141 91 134

L77 122

L78 121

C79 121 87 120 96 120

C105 119 113 119 114 118

C115 118 118 112 122 102

L129 86

L130 86

L131 86

L131 87

C131 89 143 117 144 118

C145 119 153 119 162 119

C171 120 179 120 180 121

L182 122

L168 134

C160 142 153 148 153 148

C153 148 155 155 157 164

C159 173 161 180 161 182

L161 184

L148 176

C127 162 131 163 119 170

C114 173 107 178 104 180

L98 184

L98 182

Z

"/>

<path fill="#83dcff" stroke="none" d="
M163 211

C145 199 130 190 130 190

C129 190 122 194 114 199

C80 221 68 229 66 230

L64 231

L63 231

C63 230 67 214 72 194

C77 174 81 157 81 156

C81 155 71 146 59 135

C47 125 34 114 30 110

L22 103

L22 102

C23 102 63 99 85 98

C93 98 99 97 100 97

C100 97 104 88 109 77

C114 66 120 51 123 43

C126 36 128 30 128 29

L128 28

L129 28

L131 28

L134 36

C142 58 158 96 159 97

C160 97 175 98 194 99

C212 100 230 102 232 102

L237 103

L228 111

C223 116 209 127 198 137

C187 147 178 155 178 156

C178 157 182 174 187 194

C192 214 196 231 196 231

L196 232

L163 211

Z

M106 191

C119 183 130 177 130 177

C131 178 142 184 154 192

C167 200 178 207 178 207

L179 207

L179 206

C178 205 175 193 172 179

C167 159 166 152 167 151

C167 150 177 141 188 131

L209 113

L208 112

C208 112 197 111 185 110

C147 108 152 112 141 82

L131 57

L130 57

L129 57

L123 71

C120 78 115 90 113 96

C108 108 108 108 100 108

C90 109 59 111 54 111

L50 111

L50 112

C50 113 51 114 52 115

C53 116 63 124 73 134

C88 146 93 151 93 153

C93 155 83 198 80 205

L80 207

L82 207

C83 206 94 199 106 191

Z

M1 9

C0 9 0 7 0 4

L0 0

L130 0

L260 0

L260 5

L260 10

L259 10

L258 10

L258 8

L258 6

L131 6

C61 6 3 6 3 5

L2 5

L2 7

L3 10

L2 10

C2 10 1 10 1 9

Z

M98 182

C98 181 100 173 102 164

C104 156 106 148 106 148

C106 148 99 141 91 134

L77 122

L78 121

C79 121 87 120 96 120

C105 119 113 119 114 118

C115 118 118 112 122 102

L129 86

L130 86

L131 86

L131 87

C131 89 143 117 144 118

C145 119 153 119 162 119

C171 120 179 120 180 121

L182 122

L168 134

C160 142 153 148 153 148

C153 148 155 155 157 164

C159 173 161 180 161 182

L161 184

L148 176

C127 162 131 163 119 170

C114 173 107 178 104 180

L98 184

L98 182

Z

"/>

<path fill="#85ddfe" stroke="none" d="
M163 211

C145 199 130 190 130 190

C129 190 122 194 114 199

C80 221 68 229 66 230

L64 231

L63 231

C63 230 67 214 72 194

C77 174 81 157 81 156

C81 155 71 146 59 135

C47 125 34 114 30 110

L22 103

L22 102

C23 102 63 99 85 98

C93 98 99 97 100 97

C100 97 104 88 109 77

C114 66 120 51 123 43

C126 36 128 30 128 29

L128 28

L129 28

L131 28

L134 36

C142 58 158 96 159 97

C160 97 175 98 194 99

C212 100 230 102 232 102

L237 103

L228 111

C223 116 209 127 198 137

C187 147 178 155 178 156

C178 157 182 174 187 194

C192 214 196 231 196 231

L196 232

L163 211

Z

M106 191

C119 183 130 177 130 177

C131 178 142 184 154 192

C167 200 178 207 178 207

L179 207

L179 206

C178 205 175 193 172 179

C167 159 166 152 167 151

C167 150 177 141 188 131

L209 113

L208 112

C208 112 197 111 185 110

C147 108 152 112 141 82

L131 57

L130 57

L129 57

L123 71

C120 78 115 90 113 96

C108 108 108 108 100 108

C90 109 59 111 54 111

L50 111

L50 112

C50 113 51 114 52 115

C53 116 63 124 73 134

C88 146 93 151 93 153

C93 155 83 198 80 205

L80 207

L82 207

C83 206 94 199 106 191

Z

M17 1

L17 0

L20 0

L22 0

L22 1

C21 1 20 2 19 2

L17 2

L17 1

Z

M35 1

L35 0

L36 0

L37 0

L37 1

C36 2 36 2 35 2

L35 2

L35 1

Z

M50 1

L50 0

L51 0

L52 0

L52 1

L52 2

L51 2

L50 2

L50 1

Z

M101 1

L101 0

L102 0

L103 0

L103 1

C102 2 102 2 101 2

L101 2

L101 1

Z

M118 1

L118 0

L119 0

L120 0

L120 1

L120 2

L119 2

L118 2

L118 1

Z

M123 1

L123 0

L124 0

L125 0

L125 1

L125 2

L124 2

L123 2

L123 1

Z

M220 1

L220 0

L221 0

L222 0

L222 1

L222 2

L221 2

L220 2

L220 1

Z

M98 182

C98 181 100 173 102 164

C104 156 106 148 106 148

C106 148 99 141 91 134

L77 122

L78 121

C79 121 87 120 96 120

C105 119 113 119 114 118

C115 118 118 112 122 102

L129 86

L130 86

L131 86

L131 87

C131 89 143 117 144 118

C145 119 153 119 162 119

C171 120 179 120 180 121

L182 122

L168 134

C160 142 153 148 153 148

C153 148 155 155 157 164

C159 173 161 180 161 182

L161 184

L148 176

C127 162 131 163 119 170

C114 173 107 178 104 180

L98 184

L98 182

Z

"/>

<path fill="#d5eeff" stroke="none" d="
M163 211

C145 199 130 190 130 190

C129 190 122 194 114 199

C80 221 68 229 66 230

L64 231

L63 231

C63 230 67 214 72 194

C77 174 81 157 81 156

C81 155 71 146 59 135

C47 125 34 114 30 110

L22 103

L22 102

C23 102 63 99 85 98

C93 98 99 97 100 97

C100 97 104 88 109 77

C114 66 120 51 123 43

C126 36 128 30 128 29

L128 28

L129 28

L131 28

L134 36

C142 58 158 96 159 97

C160 97 175 98 194 99

C212 100 230 102 232 102

L237 103

L228 111

C223 116 209 127 198 137

C187 147 178 155 178 156

C178 157 182 174 187 194

C192 214 196 231 196 231

L196 232

L163 211

Z

M106 191

C119 183 130 177 130 177

C131 178 142 184 154 192

C167 200 178 207 178 207

L179 207

L179 206

C178 205 175 193 172 179

C167 159 166 152 167 151

C167 150 177 141 188 131

L209 113

L208 112

C208 112 197 111 185 110

C147 108 152 112 141 82

L131 57

L130 57

L129 57

L123 71

C120 78 115 90 113 96

C108 108 108 108 100 108

C90 109 59 111 54 111

L50 111

L50 112

C50 113 51 114 52 115

C53 116 63 124 73 134

C88 146 93 151 93 153

C93 155 83 198 80 205

L80 207

L82 207

C83 206 94 199 106 191

Z

M98 182

C98 181 100 173 102 164

C104 156 106 148 106 148

C106 148 99 141 91 134

L77 122

L78 121

C79 121 87 120 96 120

C105 119 113 119 114 118

C115 118 118 112 122 102

L129 86

L130 86

L131 86

L131 87

C131 89 143 117 144 118

C145 119 153 119 162 119

C171 120 179 120 180 121

L182 122

L168 134

C160 142 153 148 153 148

C153 148 155 155 157 164

C159 173 161 180 161 182

L161 184

L148 176

C127 162 131 163 119 170

C114 173 107 178 104 180

L98 184

L98 182

Z

"/>

<path fill="#f1f9ff" stroke="none" d="
M63 228

C66 219 81 157 81 156

C81 155 68 143 52 129

C36 115 23 103 23 103

L23 102

L23 102

C54 100 74 99 85 98

C93 98 99 97 100 97

C100 97 104 88 109 77

C114 66 120 51 123 43

C126 36 128 30 128 29

L128 28

L129 28

L131 28

L134 37

C136 42 142 58 148 72

C156 92 159 97 160 97

C162 98 176 99 193 99

C210 100 226 101 230 102

L236 102

L236 103

C236 104 186 149 179 154

C179 154 178 155 178 156

C178 158 194 222 196 228

L196 230

L194 230

C193 230 178 221 162 210

C145 199 131 191 130 190

C130 190 122 194 114 199

C72 226 66 230 65 230

L63 230

L63 228

Z

M106 191

C119 183 130 177 130 177

C131 178 142 184 154 192

C167 200 178 207 178 207

L179 207

L179 206

C178 205 175 193 172 179

C167 159 166 152 167 151

C167 150 177 141 189 131

C200 121 210 112 210 111

L210 110

L209 111

L209 112

L198 111

C192 110 179 110 170 109

C160 108 151 108 151 107

C151 107 146 95 140 82

L131 57

L130 57

L129 57

L123 71

C120 78 115 90 113 96

C108 108 108 108 100 108

C90 109 59 111 54 111

L50 111

L50 112

C50 113 51 114 52 115

C53 116 63 124 73 134

C88 146 93 151 93 153

C93 155 83 198 80 205

L80 207

L82 207

C83 206 94 199 106 191

Z

M98 181

C98 180 100 173 102 164

C104 156 106 148 106 148

C106 148 100 142 92 135

L78 123

L78 122

L79 121

L95 120

C104 119 112 119 114 118

C115 118 117 115 122 102

L129 86

L130 86

L131 86

L131 88

C131 89 134 96 138 104

C142 115 144 118 146 119

C147 119 155 119 164 120

L180 121

L181 122

L181 123

L167 135

C159 142 153 148 153 148

C153 148 155 155 157 164

C159 173 161 180 161 181

L161 182

L160 182

C159 182 153 179 147 175

C127 162 132 162 115 173

C107 178 100 182 99 182

L98 182

L98 181

Z

"/>

<path fill="#fbfeff" stroke="none" d="
M64 228

C64 227 68 211 73 191

C81 158 82 156 80 154

C79 153 66 142 51 129

C36 115 24 104 24 104

L24 102

L32 102

C37 101 53 100 69 99

C84 99 97 98 99 97

C100 97 103 92 110 74

C115 62 121 46 124 40

L129 29

L130 29

L131 29

L139 49

C143 60 149 75 153 83

C157 94 159 97 160 97

C162 98 175 99 191 99

C206 100 222 101 227 102

L235 102

L235 104

C235 104 188 147 179 154

C179 154 178 155 178 156

C178 157 182 174 187 193

C191 212 195 228 195 229

C193 230 188 227 160 209

C145 199 131 191 130 190

C130 190 115 199 98 210

C80 221 66 230 65 230

L64 230

L64 228

Z

M105 193

C117 184 128 178 130 178

C131 178 136 180 140 183

C170 203 177 207 178 207

L179 207

L179 205

C179 204 175 192 172 178

C164 148 162 154 191 129

C201 120 210 112 210 111

L210 110

L209 110

C208 111 152 108 151 107

C151 107 146 95 140 82

L131 57

L130 57

L129 57

L123 71

C120 78 115 90 113 96

L108 108

L105 108

C104 108 92 109 79 109

C65 110 53 111 52 111

L50 111

L50 112

C50 113 51 114 52 115

C67 127 93 151 93 152

C93 153 90 166 87 180

C83 194 80 206 80 206

L80 207

L81 207

C81 207 92 200 105 193

Z

M99 179

C99 178 101 171 103 163

C104 155 106 149 106 148

C106 148 100 142 93 135

C85 129 79 123 79 122

L79 121

L84 121

C86 120 94 120 101 119

C107 119 113 119 114 118

C115 118 118 112 122 102

L128 87

L129 87

L131 87

L137 102

C140 111 144 118 144 118

C145 118 151 119 158 119

C165 120 173 120 175 121

L180 121

L180 122

C180 123 174 129 167 135

C159 142 153 148 153 148

C153 149 155 155 157 163

C158 171 160 178 160 179

L160 181

L158 181

C158 181 151 177 143 173

C136 168 130 164 130 164

C129 164 123 168 116 173

C108 177 102 181 101 181

L99 181

L99 179

Z

"/>

<path fill="#fdfeff" stroke="none" d="
M188 226

C182 222 177 219 166 212

C159 208 154 204 153 204

C153 204 151 203 151 202

C150 201 148 200 148 200

C147 200 144 198 140 195

C136 192 132 190 131 190

C129 189 124 192 115 198

C112 200 108 202 107 203

C105 204 104 205 104 205

L104 206

L103 206

C102 206 97 210 90 214

C75 224 72 226 68 226

L66 226

L66 222

C67 220 67 216 68 214

C69 211 69 207 70 205

C70 203 71 202 71 201

C72 201 72 200 72 198

L72 195

L73 195

L75 196

L74 191

L74 187

L75 187

L77 188

L76 183

L76 179

L77 179

L79 180

L78 175

L78 171

L79 171

L81 172

L80 167

C80 165 80 162 81 162

C82 161 82 159 82 158

C82 155 76 149 66 141

C63 138 49 126 48 125

C48 125 45 122 41 119

C31 111 26 105 26 104

L26 102

L39 102

C47 101 60 101 70 100

L88 100

L87 101

C86 101 83 102 79 102

L73 103

L81 103

L89 103

L89 101

L89 99

L95 98

C101 98 101 98 103 92

C105 89 106 86 106 85

L106 84

L107 84

L108 84

L108 82

L108 79

L109 79

L110 79

L110 77

L110 74

L111 74

L112 74

L112 72

C112 71 113 68 114 65

C117 60 117 58 120 50

C122 46 124 42 125 39

L126 35

L129 35

C133 36 134 38 138 48

C139 51 141 55 141 56

C142 57 143 59 143 61

C143 62 144 64 145 66

C146 69 148 72 149 76

C150 77 150 79 151 80

C153 85 154 88 156 93

C159 98 159 98 165 98

C172 99 194 100 219 102

L233 102

L233 104

C233 105 223 115 214 122

C212 124 208 127 206 129

C204 132 200 134 199 136

C196 137 183 149 178 154

L176 156

L177 157

C177 158 178 160 178 162

C178 163 178 165 179 166

C180 166 180 168 180 170

C180 171 180 173 181 174

C182 174 182 176 182 178

C182 179 182 181 183 181

C184 182 184 184 186 193

C186 195 187 197 187 198

C188 198 188 199 188 200

C188 201 188 204 189 206

C191 214 192 216 193 221

L193 227

L192 227

C191 227 189 226 188 226

Z

M91 207

L91 208

L92 206

C93 205 94 204 95 204

L95 204

L96 203

L96 202

L95 203

L95 204

L94 203

L93 203

L92 204

L92 206

L91 205

L90 205

L89 207

L88 210

L89 208

L91 206

L91 207

Z

M87 205

C90 203 93 201 93 201

L93 200

L94 200

C95 200 96 200 96 199

C97 198 103 194 104 194

C105 194 114 188 115 187

L115 186

L116 186

C117 186 118 185 119 184

C120 183 123 181 125 180

C130 178 130 178 134 180

C136 181 138 183 138 183

L138 184

L140 184

L141 184

L141 185

L141 186

L142 186

L144 186

L144 187

C145 188 151 192 152 192

C153 192 154 193 155 194

C156 194 158 196 160 197

C161 198 163 199 163 199

L163 200

L165 200

L166 200

L166 201

C166 201 169 203 172 205

L178 208

L179 207

L180 206

L179 204

C179 203 178 200 178 199

C177 197 177 194 176 191

C174 181 173 179 172 175

C170 166 169 162 168 157

C167 152 167 152 172 147

C174 144 178 141 180 140

C193 129 210 113 210 111

L210 110

L198 110

C191 110 185 110 185 109

C184 109 176 108 168 108

C151 107 152 108 149 102

C149 101 148 98 147 97

C147 95 146 93 145 92

C144 90 144 88 143 87

C142 85 142 83 141 82

C141 81 140 78 139 76

C138 74 136 69 134 66

C133 62 131 58 130 57

L129 55

L127 61

C124 67 123 70 121 74

C121 75 120 78 119 79

C118 83 115 89 111 99

C107 108 107 108 92 108

C66 109 49 110 49 111

L48 112

L57 120

C62 125 68 130 70 132

C72 133 74 135 75 136

C77 138 84 144 88 147

C92 150 92 151 92 155

C91 160 90 165 89 168

C89 169 88 171 88 173

C87 174 87 177 86 179

C86 181 85 185 84 187

C83 189 82 193 82 196

C81 198 81 201 80 204

L80 208

L80 208

C81 208 84 207 87 205

Z

M109 195

L110 194

L110 195

L110 196

L112 194

L113 192

L113 193

L113 194

L114 192

C115 191 116 190 116 190

L117 190

L118 189

L118 188

L117 189

L117 190

L116 189

L115 189

L114 190

L114 192

L113 191

L112 191

L111 192

L111 194

L110 193

L109 193

L108 194

L108 196

L107 195

L106 195

L106 196

L105 197

L107 197

C107 196 109 196 109 195

Z

M131 182

L131 181

L130 181

L129 180

L128 181

L127 183

L128 183

C129 182 130 182 131 182

Z

M171 157

C170 155 171 154 173 151

L176 148

L175 148

C172 149 169 152 170 154

C170 156 170 157 170 158

L170 159

L171 159

L171 159

L171 157

Z

M184 142

L184 141

L183 141

C182 142 181 142 180 142

L180 143

L181 143

C182 142 183 142 184 142

Z

M191 136

L193 133

L192 133

C191 133 189 135 188 136

L185 139

L186 139

C187 139 189 137 191 136

Z

M201 127

L202 125

L201 125

C200 125 198 126 198 127

L196 129

L197 129

C198 129 200 128 201 127

Z

M207 121

L210 119

L208 120

L206 121

L206 120

L205 120

L204 122

L202 124

L203 124

C204 124 206 123 207 121

Z

M180 102

C179 102 177 102 176 102

L174 103

L178 103

L183 103

L180 102

Z

M111 85

L111 84

L110 85

L110 86

L109 85

L108 85

L108 86

L109 87

L110 86

C111 86 111 85 111 85

Z

M113 80

L113 79

L112 80

L112 81

L111 80

L110 80

L110 81

L111 82

L112 81

C113 81 113 80 113 80

Z

M142 78

L141 77

L142 78

L142 80

L143 80

L143 79

L142 78

Z

M115 75

L115 74

L114 75

L114 76

L113 75

L112 75

L112 76

L113 77

L114 76

C115 76 115 75 115 75

Z

M100 176

C101 175 101 171 102 168

C103 165 103 160 104 158

C107 147 107 148 96 138

C91 134 86 129 86 129

C85 127 86 122 87 121

C88 120 93 120 98 120

C103 120 109 120 111 119

C115 119 115 118 119 111

C121 107 122 103 123 102

C123 100 124 98 125 97

L126 94

L128 94

C128 95 129 94 130 94

L131 93

L132 94

C133 95 136 101 138 107

C143 117 143 118 147 119

C149 120 155 120 161 120

C168 120 171 120 173 121

L175 123

L174 123

L173 123

L174 125

L175 126

L164 137

C152 149 152 147 156 164

C157 166 157 170 158 173

L158 178

L156 178

C154 178 149 176 145 173

C128 163 130 163 124 167

C113 174 103 179 102 179

L100 179

L100 176

Z

M172 151

C172 150 174 149 174 149

L174 149

L173 151

C172 152 170 153 170 153

L170 153

L172 151

Z

M189 136

C189 135 191 134 191 134

L191 134

L190 136

C189 137 187 138 187 138

L187 138

L189 136

Z

"/>

<path fill="#fdffff" stroke="none" d="
M73 222

C73 221 72 220 71 220

C69 219 68 218 68 216

C68 213 69 207 71 204

L72 203

L74 203

C75 203 77 203 78 202

L79 201

L80 202

C80 203 80 205 80 206

L79 208

L82 208

L85 209

L84 208

L84 207

L85 207

C86 207 89 213 88 214

L88 216

L87 216

C86 216 85 217 84 218

C82 220 76 222 75 221

L74 221

L74 222

L75 223

L74 223

L73 223

L73 222

Z

M184 222

L185 221

L183 222

C182 222 180 221 179 220

C178 219 176 218 176 218

C175 218 174 217 173 216

C172 214 171 213 172 211

L173 207

L177 208

L180 208

L180 205

L180 202

L182 202

C184 202 186 202 187 201

L188 201

L188 204

L187 207

L188 207

L189 207

L191 213

C191 216 192 219 192 219

L192 220

L191 220

C191 220 189 220 188 220

L186 221

L186 222

L186 223

L185 223

L184 223

L184 222

Z

M149 175

C138 168 131 164 129 164

C129 164 126 165 124 167

C121 168 117 171 114 172

C109 175 109 175 106 174

C105 173 103 172 103 173

L102 173

L102 168

C103 166 103 161 104 159

C107 148 107 148 97 138

C88 131 87 129 88 127

C88 126 89 124 89 123

L90 122

L89 122

L89 121

L91 121

C92 120 98 120 104 120

C114 120 114 119 116 117

C117 115 122 104 124 100

L124 98

L126 98

L127 99

L126 98

L126 97

L130 97

C133 97 134 97 136 101

C139 107 142 115 142 116

C142 116 143 118 144 118

C146 120 149 120 157 120

C163 120 168 120 169 121

L171 122

L170 122

L169 122

L171 126

L172 129

L167 134

C165 136 160 141 157 143

C152 148 152 147 155 159

C155 160 156 164 157 168

L157 174

L156 173

L156 172

L154 173

L152 174

L153 175

L153 176

L152 176

C151 176 150 175 149 175

Z

M86 163

C84 163 83 162 83 163

L82 163

L82 158

C82 156 82 153 82 152

L82 151

L80 152

L79 152

L79 151

C79 151 80 149 82 148

L85 146

L89 148

C91 150 92 151 92 154

L92 158

L91 158

L89 157

L90 160

L90 163

L89 163

C89 164 87 163 86 163

Z

M211 120

C211 119 209 118 208 118

L207 118

L207 117

C207 117 208 116 208 114

C209 113 210 112 210 111

L210 110

L200 110

C195 110 189 110 189 109

L187 109

L188 108

L188 107

L186 107

L184 108

L184 104

L184 100

L192 100

C197 100 202 100 202 101

L204 101

L204 102

L203 103

L215 103

L227 103

L226 104

C226 105 226 106 227 107

L228 109

L227 110

L226 110

L227 109

L227 108

L226 108

L225 109

L226 110

L226 111

L224 114

C222 116 214 122 213 122

C213 122 212 121 211 120

Z

M42 119

C33 112 32 110 32 107

L32 103

L34 102

C35 102 41 102 46 102

L56 103

L55 102

L55 101

L58 100

C60 100 64 100 67 100

L72 101

L71 103

C71 104 71 106 71 108

L70 110

L61 110

C57 110 51 110 50 111

L48 111

L50 114

L51 116

L49 118

C48 118 47 119 46 120

C45 121 45 121 42 119

Z

M91 106

C91 105 91 103 92 102

C92 101 92 100 92 100

L92 100

L93 99

C94 98 96 98 98 98

L101 98

L102 96

C103 94 104 93 106 94

L108 94

L108 95

L108 96

L110 96

L111 95

L111 97

L111 98

L110 98

L109 97

L109 100

L110 103

L108 102

L107 102

L108 104

L108 106

L107 107

C106 108 102 108 98 108

L90 108

L91 106

Z

M151 105

C150 104 149 102 149 101

C148 100 148 98 148 97

L148 95

L149 95

L149 96

L152 94

L155 92

L157 95

C158 97 159 98 161 98

C163 98 166 98 167 99

L169 99

L168 100

L168 101

L171 101

L174 100

L173 102

C173 104 172 105 173 106

L173 108

L163 108

C152 108 152 108 151 105

Z

M139 70

L139 69

L138 69

L137 70

L137 67

L137 65

L136 66

L135 66

L135 64

L136 62

L135 63

L134 63

L134 62

L135 60

L134 60

L133 61

L131 58

L130 55

L129 57

L128 59

L126 59

L125 58

L125 60

L126 62

L123 61

L121 61

L122 64

C122 66 123 68 122 69

L122 71

L120 70

C119 69 118 68 117 68

L115 66

L116 63

L117 60

L118 60

L119 61

L119 58

L119 55

L120 55

L121 55

L120 53

C120 51 121 48 123 44

C126 38 126 38 130 38

C133 38 133 38 136 43

C139 50 142 60 142 62

L141 63

L143 62

L144 62

L144 65

L143 68

L144 67

L145 67

L145 69

L145 70

L144 70

L144 69

L141 71

L138 72

L139 70

Z

M118 65

L118 64

L118 64

C117 64 117 64 117 65

L116 66

L117 66

L118 66

L118 65

Z

"/>

<path fill="#fefeff" stroke="none" d="
M113 171

L113 170

L112 170

C111 170 110 169 108 168

C107 166 106 165 105 165

L105 165

L105 160

C105 158 105 154 106 152

C106 148 106 147 100 142

C97 138 94 135 94 134

L94 133

L95 133

L96 134

L96 132

C96 131 96 128 96 125

L97 120

L105 120

C112 120 113 120 115 118

C117 116 118 113 119 111

C120 109 121 107 121 106

C122 106 126 106 130 106

L138 106

L139 109

C142 116 143 118 144 119

C145 119 150 120 155 120

L165 121

L165 125

C166 128 166 131 166 132

C167 134 166 135 162 139

C152 148 152 147 153 152

C154 155 155 158 155 160

C156 162 156 165 156 165

L155 167

L154 167

C152 167 151 167 148 170

L146 172

L141 170

C139 169 135 167 134 166

C130 164 128 164 125 166

C121 169 115 172 113 172

L112 172

L113 171

Z

"/>

<path fill="#feffff" stroke="none" d="
M113 171

L113 170

L112 170

C111 170 110 169 108 168

C107 166 106 165 105 165

L105 165

L105 160

C105 158 105 154 106 152

C106 148 106 147 100 142

C97 138 94 135 94 134

L94 133

L95 133

L96 134

L96 132

C96 131 96 128 96 125

L97 120

L105 120

C112 120 113 120 115 118

C117 116 118 113 119 111

C120 109 121 107 121 106

C122 106 126 106 130 106

L138 106

L139 109

C142 116 143 118 144 119

C145 119 150 120 155 120

L165 121

L165 125

C166 128 166 131 166 132

C167 134 166 135 162 139

C151 148 152 147 153 152

C154 155 155 158 155 160

C156 162 156 165 156 165

L155 167

L154 167

C152 167 151 167 148 170

L146 172

L141 170

C139 169 135 167 134 166

C130 164 128 164 125 166

C121 169 115 172 113 172

L112 172

L113 171

Z

"/>

<path fill="#ffffff" stroke="none" d="
M124 162

C116 159 112 157 110 153

L108 149

L108 150

L107 150

L107 148

C106 147 106 142 106 138

C106 130 107 130 111 125

L116 121

L114 122

L113 122

L113 121

L114 120

L116 120

L117 121

L117 120

L117 119

L118 119

C118 119 121 118 122 117

C127 115 131 115 136 116

C138 117 140 118 140 118

L141 117

L142 118

L143 120

L142 120

L142 121

L143 120

L145 120

L145 121

L144 122

L146 122

L147 121

L147 122

L146 122

L150 126

C153 130 154 131 153 143

C152 145 152 147 152 148

L152 150

L151 150

L150 149

L149 153

C146 158 143 160 136 162

C133 162 131 163 130 163

L130 163

L131 162

L131 161

L130 161

L128 161

L129 162

L129 163

L128 163

C127 163 125 162 124 162

Z

"/>

</svg>

