<?xml version="1.0" standalone="no"?>

<!DOCTYPE svg PUBLIC "-//W3C//DTD SVG 20010904//EN"

 "http://www.w3.org/TR/2001/REC-SVG-20010904/DTD/svg10.dtd">

<svg version="1.0" xmlns="http://www.w3.org/2000/svg"

 width="256.000000pt" height="256.000000pt" viewBox="0 0 256.000000 256.000000"

 preserveAspectRatio="xMidYMid meet">

<path fill="#fefefe" stroke="none" d="
M0 128

L0 0

L128 0

L256 0

L256 128

L256 256

L128 256

L0 256

L0 128

Z

"/>

<path fill="#f4dce2" stroke="none" d="
M0 128

L0 0

L128 0

L256 0

L256 26

C256 40 255 51 255 51

C255 51 252 51 248 50

C239 48 224 48 216 50

C201 54 187 64 179 77

C176 81 174 85 174 85

C174 85 172 82 170 79

C166 71 157 63 150 58

C120 38 71 50 56 82

C50 95 48 107 51 124

C55 150 69 179 90 205

C99 217 120 237 132 247

L144 256

L72 256

L0 256

L0 128

Z

M204 255

C204 255 207 252 212 248

C216 245 228 234 238 224

L256 207

L256 231

L256 256

L230 256

C215 256 204 255 204 255

Z

"/>

<path fill="#f0ccd5" stroke="none" d="
M0 128

L0 0

L128 0

L256 0

L256 26

C256 40 255 52 255 52

C255 52 252 51 248 50

C240 48 223 48 215 50

C200 54 187 64 179 77

L174 84

L171 80

C162 65 147 53 131 50

C122 48 107 48 98 50

C72 57 56 73 51 97

C49 107 49 115 52 128

C60 171 90 215 137 250

L144 256

L72 256

L0 256

L0 128

Z

M206 253

C218 244 233 230 248 215

L256 207

L256 231

L256 256

L229 255

L203 255

L206 253

Z

"/>

<path fill="#ecb7c6" stroke="none" d="
M0 128

L0 0

L128 0

L256 0

L256 26

C256 40 255 52 255 52

C255 52 252 51 248 50

C239 47 223 47 214 50

C199 55 187 64 178 77

L174 85

L170 79

C164 67 150 56 137 51

C107 41 69 55 56 81

C49 95 48 109 52 128

C57 154 69 180 90 206

C100 218 117 235 130 245

C135 249 140 253 141 254

C143 255 139 255 71 255

L0 256

L0 128

Z

M204 255

C205 254 207 252 210 250

C219 243 236 228 246 218

L255 207

L255 231

L256 256

L229 256

C215 256 204 255 204 255

Z

"/>

<path fill="#e697b0" stroke="none" d="
M0 128

L0 0

L128 0

L256 0

L256 26

C256 40 255 51 255 51

C254 51 252 51 249 50

C235 46 218 48 204 54

C195 58 185 67 179 77

L174 84

L169 77

C156 57 132 45 108 48

C79 52 60 67 52 90

C43 121 58 166 90 206

C100 218 118 235 130 245

C135 249 140 253 141 254

C143 255 139 255 71 255

L0 256

L0 128

Z

M204 255

C204 255 206 253 208 251

C217 246 235 229 246 218

L255 207

L255 231

L256 256

L230 256

C215 256 204 255 204 255

Z

"/>

<path fill="#e36e97" stroke="none" d="
M0 128

L0 0

L128 0

L256 0

L256 26

C256 40 255 51 255 51

C255 51 253 51 250 50

C235 46 217 47 204 54

C193 59 180 71 176 81

L174 84

L170 78

C156 56 133 45 108 48

C58 55 38 94 57 148

C68 182 98 221 131 246

C136 250 141 253 141 254

C143 255 131 256 71 256

L0 256

L0 128

Z

M204 255

C204 255 205 254 207 252

C214 248 236 228 246 217

L255 207

L255 231

L256 256

L230 256

C215 256 204 255 204 255

Z

"/>

<path fill="#fe2e91" stroke="none" d="
M0 128

L0 0

L128 0

L256 0

L256 26

C256 50 255 52 254 51

C250 49 237 48 231 48

C222 48 210 51 201 55

C193 60 182 70 178 78

L174 84

L169 77

C154 54 129 44 101 49

C56 59 39 97 57 149

C68 182 98 221 131 246

C136 250 141 253 141 254

C143 255 131 256 71 256

L0 256

L0 128

Z

M204 255

C204 255 205 254 207 252

C214 248 236 228 246 217

L255 207

L255 231

L256 256

L230 256

C215 256 204 255 204 255

Z

"/>

<path fill="#e52573" stroke="none" d="
M106 224

L102 220

L106 224

C110 228 111 229 110 229

C110 229 108 227 106 224

Z

M160 66

C159 64 159 64 161 65

C162 67 163 68 162 68

C162 68 161 67 160 66

Z

M124 48

C125 48 126 48 126 48

C127 48 126 48 125 48

C124 48 124 48 124 48

Z

"/>

</svg>

